<?xml version="1.0" encoding="utf-8"?>
<!-- Generator: Adobe Illustrator 22.1.0, SVG Export Plug-In . SVG Version: 6.00 Build 0)  -->
<svg version="1.1" id="Layer_1" xmlns="http://www.w3.org/2000/svg" xmlns:xlink="http://www.w3.org/1999/xlink" x="0px" y="0px"
	 viewBox="0 0 517 438" style="enable-background:new 0 0 517 438;" xml:space="preserve">
<g>
	<g id="freepik--background-complete--inject-2">
		<rect x="-35.4" y="384.9" style="fill:#EBEBEB;" width="587.8" height="0.3"/>
		<rect x="26.3" y="396.1" style="fill:#EBEBEB;" width="38.9" height="0.3"/>
		<rect x="165.8" y="396.3" style="fill:#EBEBEB;" width="63.3" height="0.3"/>
		<rect x="88.9" y="402.2" style="fill:#EBEBEB;" width="22.6" height="0.3"/>
		<rect x="466.3" y="402" style="fill:#EBEBEB;" width="22.6" height="0.3"/>
		<rect x="420.2" y="402" style="fill:#EBEBEB;" width="35.6" height="0.3"/>
		<rect x="350.6" y="400.1" style="fill:#EBEBEB;" width="50" height="0.3"/>
		<path style="fill:#EBEBEB;" d="M243.2,332.5h-227c-3.7,0-6.7-3-6.7-6.7V6.7c0-3.7,3-6.6,6.7-6.7h227c3.7,0,6.7,3,6.7,6.7
			c0,0,0,0,0,0l0,0v319C249.9,329.5,246.9,332.5,243.2,332.5z M16.2,0.2c-3.5,0-6.4,2.9-6.4,6.4v319.1c0,3.5,2.9,6.4,6.4,6.4h227
			c3.5,0,6.4-2.9,6.4-6.4V6.7c0-3.5-2.9-6.4-6.4-6.4H16.2z"/>
		<path style="fill:#EBEBEB;" d="M497.5,332.5h-227c-3.7,0-6.7-3-6.7-6.7V6.7c0-3.7,3-6.6,6.7-6.7h227c3.7,0,6.7,3,6.7,6.7v319.1
			C504.2,329.5,501.2,332.5,497.5,332.5L497.5,332.5z M270.5,0.2c-3.5,0-6.4,2.9-6.4,6.4v319.1c0,3.5,2.9,6.4,6.4,6.4h227
			c3.5,0,6.4-2.9,6.4-6.4V6.7c0-3.5-2.9-6.4-6.4-6.4H270.5z"/>
		<rect x="319.9" y="219.3" style="fill:#E6E6E6;" width="33.3" height="165.6"/>
		<polygon style="fill:#F0F0F0;" points="326.2,384.9 319.9,384.9 319.9,366.9 332.8,366.9 		"/>
		<rect x="444.3" y="219.3" style="fill:#E6E6E6;" width="33.3" height="165.6"/>
		<rect x="319.9" y="219.3" style="fill:#F0F0F0;" width="130" height="154.6"/>
		<rect x="324.8" y="321.3" style="fill:#E6E6E6;" width="57.9" height="30.1"/>
		<rect x="387" y="321.3" style="fill:#E6E6E6;" width="57.9" height="30.1"/>
		<path style="fill:#F0F0F0;" d="M410.2,326.3h11.5c5,0,9.7-2,13.2-5.7h-37.8C400.5,324.3,405.2,326.4,410.2,326.3z"/>
		<path style="fill:#F0F0F0;" d="M347.4,326.3h11.5c5,0,9.7-2,13.2-5.7h-37.8C337.7,324.3,342.5,326.4,347.4,326.3z"/>
		<rect x="324.8" y="274.6" style="fill:#E6E6E6;" width="57.9" height="30.1"/>
		<rect x="387" y="274.6" style="fill:#E6E6E6;" width="57.9" height="30.1"/>
		<path style="fill:#F0F0F0;" d="M410.2,279.6h11.5c5,0,9.7-2.1,13.2-5.7h-37.8C400.5,277.5,405.2,279.6,410.2,279.6z"/>
		<path style="fill:#F0F0F0;" d="M347.4,279.6h11.5c5,0,9.7-2,13.2-5.7h-37.8C337.7,277.6,342.5,279.6,347.4,279.6z"/>
		<rect x="324.8" y="227.9" style="fill:#E6E6E6;" width="57.9" height="30.1"/>
		<rect x="387" y="227.9" style="fill:#E6E6E6;" width="57.9" height="30.1"/>
		<path style="fill:#F0F0F0;" d="M410.2,232.9h11.5c5,0,9.7-2,13.2-5.7h-37.8C400.5,230.8,405.2,232.9,410.2,232.9z"/>
		<path style="fill:#F0F0F0;" d="M347.4,232.9h11.5c5,0,9.7-2,13.2-5.7h-37.8C337.7,230.8,342.5,232.9,347.4,232.9z"/>
		<polygon style="fill:#F0F0F0;" points="443.5,384.9 449.8,384.9 449.8,366.9 436.9,366.9 		"/>
		<polygon style="fill:#F5F5F5;" points="449,105.5 454.1,119.5 449,119.5 417.8,105.5 		"/>
		<polygon style="fill:#E6E6E6;" points="454.1,105.5 454.1,119.5 422.9,105.5 		"/>
		<polygon style="fill:#F5F5F5;" points="326.5,105.5 331.6,119.5 326.5,119.5 295.3,105.5 		"/>
		<polygon style="fill:#E6E6E6;" points="331.6,105.5 331.6,119.5 300.4,105.5 		"/>
		<rect x="443.1" y="95.6" style="fill:#E6E6E6;" width="34" height="10.6"/>
		<rect x="274.2" y="95.6" style="fill:#F5F5F5;" width="168.9" height="10.6"/>
		<path style="fill:#F0F0F0;" d="M408.8,58.8c0,0,0.3,36.8,13,36.8s13-36.8,13-36.8H408.8z"/>
		<path style="fill:#F0F0F0;" d="M330,83.6c0,0,0.9,12,35.1,12s35.1-12,35.1-12H330z"/>
		<path style="fill:#F0F0F0;" d="M228.4,384.9h2.3l6.5-32l1.2-5.6l7.1-34.9h27.3l14.7,72.6h2.3l-15-73.9c-0.1-0.5-0.6-0.9-1.1-0.9
			h-29.1c-0.5,0-1,0.4-1.1,0.9l-6.2,30.7l-1.2,5.6L228.4,384.9z"/>
		<path style="fill:#F0F0F0;" d="M184.7,384.9h2.3l14.7-72.6h27.2l7.1,34.9l1.2,5.6l6.5,32h2.3l-7.6-37.6l-1.2-5.6l-6.2-30.7
			c-0.1-0.5-0.6-0.9-1.1-0.9h-29c-0.5,0-1,0.4-1.1,0.9L184.7,384.9z"/>
		<path style="fill:#F0F0F0;" d="M276.7,301.6h-79.1c-3.8,0-6.8,3.1-6.8,6.8v0.2c0,1.4,1.1,2.5,2.5,2.5c0,0,0,0,0,0H281
			c1.4,0,2.5-1.1,2.5-2.5l0,0l0,0v-0.2C283.5,304.7,280.4,301.7,276.7,301.6z"/>
		<path style="fill:#F0F0F0;" d="M149,384.9h2.3l6.5-32l1.2-5.6l7.1-34.9h27.2l14.8,72.6h2.3l-15-73.9c-0.1-0.5-0.6-0.9-1.1-0.9h-29
			c-0.5,0-1,0.4-1.1,0.9l-6.2,30.7l-1.2,5.6L149,384.9z"/>
		<path style="fill:#F0F0F0;" d="M105.3,384.9h2.3l14.7-72.6h27.2l7.1,34.9l1.2,5.6l6.5,32h2.3l-7.6-37.6l-1.2-5.6l-6.2-30.7
			c-0.1-0.5-0.6-0.9-1.1-0.9h-29c-0.5,0-1,0.4-1.1,0.9L105.3,384.9z"/>
		<path style="fill:#F0F0F0;" d="M197.4,301.6h-79.1c-3.8,0-6.8,3.1-6.8,6.8v0.2c0,1.4,1.1,2.5,2.5,2.5l0,0h87.8
			c1.4,0,2.5-1.1,2.5-2.5l0,0v-0.2C204.1,304.7,201.1,301.7,197.4,301.6z"/>
		<rect x="63.7" y="26.8" style="fill:#E6E6E6;" width="113.6" height="182"/>
		<rect x="56.3" y="26.8" style="fill:#F0F0F0;" width="117.6" height="182"/>
		<rect x="63.7" y="208.8" style="fill:#E6E6E6;" width="113.6" height="13.8"/>
		<rect x="43.9" y="208.8" style="fill:#F0F0F0;" width="117.6" height="13.8"/>
		<rect x="66.7" y="37.2" style="fill:#FAFAFA;" width="96.8" height="161.2"/>
		<polygon style="fill:#FFFFFF;" points="164.3,198.4 130.3,37.2 101.5,37.2 135.5,198.4 		"/>
		<path style="fill:#F0F0F0;" d="M156.5,179.1c0.4,0,0.7-0.3,0.7-0.7c0,0,0,0,0,0l0,0V43.9c0-0.4-0.3-0.7-0.7-0.7
			c-0.4,0-0.7,0.3-0.7,0.7c0,0,0,0,0,0l0,0v134.5C155.7,178.8,156.1,179.1,156.5,179.1z"/>
		<polygon style="fill:#FFFFFF;" points="129.3,198.4 95.3,37.2 84.1,37.2 118.1,198.4 		"/>
		<rect x="66.7" y="37.2" style="fill:#E6E6E6;" width="1.3" height="161.2"/>
		<polygon style="opacity:0.6;fill:#F0F0F0;enable-background:new    ;" points="53.8,45.1 167.5,45.1 168.4,41.2 54.8,41.2 		"/>
		<polygon style="opacity:0.6;fill:#F0F0F0;enable-background:new    ;" points="53.8,54.3 167.5,54.3 168.4,50.4 54.8,50.4 		"/>
		<polygon style="opacity:0.6;fill:#F0F0F0;enable-background:new    ;" points="53.8,63.5 167.5,63.5 168.4,59.6 54.8,59.6 		"/>
		<polygon style="opacity:0.6;fill:#F0F0F0;enable-background:new    ;" points="53.8,72.7 167.5,72.7 168.4,68.8 54.8,68.8 		"/>
		<polygon style="opacity:0.6;fill:#F0F0F0;enable-background:new    ;" points="53.8,81.9 167.5,81.9 168.4,78 54.8,78 		"/>
		<polygon style="opacity:0.6;fill:#F0F0F0;enable-background:new    ;" points="53.8,91.1 167.5,91.1 168.4,87.1 54.8,87.1 		"/>
	</g>
	<g id="freepik--Shadow--inject-2">
		<ellipse id="freepik--path--inject-2" style="fill:#F5F5F5;" cx="258.5" cy="424.7" rx="227.9" ry="13.3"/>
	</g>
	<g id="freepik--Briefcases--inject-2">
		<path style="fill:#169CFD;" d="M178.6,244.2h71.8c1,0,1.8,0.8,1.8,1.8v30c0,1-0.8,1.8-1.8,1.8h-71.8c-1,0-1.8-0.8-1.8-1.8v-30
			C176.8,245,177.6,244.2,178.6,244.2z"/>
		<path style="opacity:0.6;fill:#FFFFFF;enable-background:new    ;" d="M178.6,244.2h71.8c1,0,1.8,0.8,1.8,1.8v30
			c0,1-0.8,1.8-1.8,1.8h-71.8c-1,0-1.8-0.8-1.8-1.8v-30C176.8,245,177.6,244.2,178.6,244.2z"/>
		<path style="opacity:0.1;enable-background:new    ;" d="M250.4,244.2h-71.8c-1,0-1.8,0.8-1.8,1.8v9.6l37.4,7.4c0.2,0,0.5,0,0.7,0
			l37.4-7.4v-9.6C252.2,245.1,251.4,244.2,250.4,244.2z"/>
		<path style="fill:#169CFD;" d="M252,231.9H230v-3.7c0-3.2-2.6-5.7-5.7-5.7h-19.6c-3.2,0-5.7,2.6-5.7,5.7v3.7H177
			c-1,0-1.8,0.8-1.8,1.8v18.1c0,0.9,0.6,1.6,1.5,1.8l37.5,7.4c0.2,0,0.5,0,0.7,0l37.5-7.4c0.8-0.2,1.5-0.9,1.5-1.8v-18.1
			C253.8,232.7,253,231.9,252,231.9z M203.3,228.2c0-0.8,0.6-1.4,1.4-1.4h19.6c0.8,0,1.4,0.6,1.4,1.4v3.7h-22.3L203.3,228.2z"/>
		<path style="opacity:0.6;fill:#FFFFFF;enable-background:new    ;" d="M252,231.9H230v-3.7c0-3.2-2.6-5.7-5.7-5.7h-19.6
			c-3.2,0-5.7,2.6-5.7,5.7v3.7H177c-1,0-1.8,0.8-1.8,1.8v18.1c0,0.9,0.6,1.6,1.5,1.8l37.5,7.4c0.2,0,0.5,0,0.7,0l37.5-7.4
			c0.8-0.2,1.5-0.9,1.5-1.8v-18.1C253.8,232.7,253,231.9,252,231.9z M203.3,228.2c0-0.8,0.6-1.4,1.4-1.4h19.6c0.8,0,1.4,0.6,1.4,1.4
			v3.7h-22.3L203.3,228.2z"/>
		<path style="fill:#169CFD;" d="M210.6,256h7.7c1,0,1.7,0.8,1.7,1.7v4.9c0,1-0.8,1.7-1.7,1.7h-7.7c-1,0-1.7-0.8-1.7-1.7v-4.9
			C208.9,256.8,209.7,256,210.6,256z"/>
		<path style="opacity:0.3;fill:#FFFFFF;enable-background:new    ;" d="M210.6,256h7.7c1,0,1.7,0.8,1.7,1.7v4.9
			c0,1-0.8,1.7-1.7,1.7h-7.7c-1,0-1.7-0.8-1.7-1.7v-4.9C208.9,256.8,209.7,256,210.6,256z"/>
		<path style="fill:#169CFD;" d="M178.6,27.9h71.8c1,0,1.8,0.8,1.8,1.8v30c0,1-0.8,1.8-1.8,1.8h-71.8c-1,0-1.8-0.8-1.8-1.8v-30
			C176.8,28.8,177.6,27.9,178.6,27.9z"/>
		<path style="opacity:0.6;fill:#FFFFFF;enable-background:new    ;" d="M178.6,27.9h71.8c1,0,1.8,0.8,1.8,1.8v30
			c0,1-0.8,1.8-1.8,1.8h-71.8c-1,0-1.8-0.8-1.8-1.8v-30C176.8,28.8,177.6,27.9,178.6,27.9z"/>
		<path style="opacity:0.1;enable-background:new    ;" d="M250.4,27.9h-71.8c-1,0-1.8,0.8-1.8,1.8v9.6l37.4,7.4c0.2,0,0.5,0,0.7,0
			l37.4-7.4v-9.6C252.2,28.8,251.4,28,250.4,27.9z"/>
		<path style="fill:#169CFD;" d="M252,15.6H230V12c0-3.2-2.6-5.7-5.7-5.7h-19.6c-3.2,0-5.7,2.6-5.7,5.7v3.7H177
			c-1,0-1.8,0.8-1.8,1.8v18.1c0,0.9,0.6,1.6,1.5,1.8l37.5,7.3c0.2,0,0.5,0,0.7,0l37.5-7.4c0.8-0.2,1.4-0.9,1.5-1.7V17.5
			C253.8,16.5,253,15.6,252,15.6L252,15.6z M203.3,12c0-0.8,0.6-1.4,1.4-1.4h19.6c0.8,0,1.4,0.6,1.4,1.4v3.7h-22.3L203.3,12z"/>
		<path style="opacity:0.6;fill:#FFFFFF;enable-background:new    ;" d="M252,15.6H230V12c0-3.2-2.6-5.7-5.7-5.7h-19.6
			c-3.2,0-5.7,2.6-5.7,5.7v3.7H177c-1,0-1.8,0.8-1.8,1.8v18.1c0,0.9,0.6,1.6,1.5,1.8l37.5,7.3c0.2,0,0.5,0,0.7,0l37.5-7.4
			c0.8-0.2,1.4-0.9,1.5-1.7V17.5C253.8,16.5,253,15.6,252,15.6L252,15.6z M203.3,12c0-0.8,0.6-1.4,1.4-1.4h19.6
			c0.8,0,1.4,0.6,1.4,1.4v3.7h-22.3L203.3,12z"/>
		<path style="fill:#169CFD;" d="M210.6,39.8h7.7c1,0,1.7,0.8,1.7,1.7v4.9c0,1-0.8,1.7-1.7,1.7h-7.7c-1,0-1.7-0.8-1.7-1.7v-4.9
			C208.9,40.6,209.7,39.8,210.6,39.8z"/>
		<path style="opacity:0.3;fill:#FFFFFF;enable-background:new    ;" d="M210.6,39.8h7.7c1,0,1.7,0.8,1.7,1.7v4.9
			c0,1-0.8,1.7-1.7,1.7h-7.7c-1,0-1.7-0.8-1.7-1.7v-4.9C208.9,40.6,209.7,39.8,210.6,39.8z"/>
		<path style="fill:#169CFD;" d="M66.7,244.2h71.8c1,0,1.8,0.8,1.8,1.8v30c0,1-0.8,1.8-1.8,1.8H66.7c-1,0-1.8-0.8-1.8-1.8v-30
			C64.9,245,65.7,244.2,66.7,244.2z"/>
		<path style="opacity:0.6;fill:#FFFFFF;enable-background:new    ;" d="M66.7,244.2h71.8c1,0,1.8,0.8,1.8,1.8v30
			c0,1-0.8,1.8-1.8,1.8H66.7c-1,0-1.8-0.8-1.8-1.8v-30C64.9,245,65.7,244.2,66.7,244.2z"/>
		<path style="opacity:0.1;enable-background:new    ;" d="M138.6,244.2H66.7c-1,0-1.8,0.8-1.8,1.8v9.6l37.4,7.4c0.2,0,0.5,0,0.7,0
			l37.4-7.4v-9.6C140.4,245.1,139.6,244.2,138.6,244.2z"/>
		<path style="fill:#169CFD;" d="M140.1,231.9h-21.9v-3.7c0-3.2-2.6-5.7-5.7-5.7H92.8c-3.2,0-5.7,2.6-5.7,5.7v3.7H65.2
			c-1,0-1.8,0.8-1.8,1.8v18.1c0,0.9,0.6,1.6,1.5,1.8l37.5,7.4c0.2,0,0.5,0,0.7,0l37.5-7.4c0.8-0.2,1.5-0.9,1.5-1.8v-18.1
			C141.9,232.7,141.1,231.9,140.1,231.9L140.1,231.9z M91.4,228.2c0-0.8,0.6-1.4,1.4-1.4h19.6c0.8,0,1.4,0.6,1.4,1.4v3.7H91.5
			L91.4,228.2z"/>
		<path style="opacity:0.6;fill:#FFFFFF;enable-background:new    ;" d="M140.1,231.9h-21.9v-3.7c0-3.2-2.6-5.7-5.7-5.7H92.8
			c-3.2,0-5.7,2.6-5.7,5.7v3.7H65.2c-1,0-1.8,0.8-1.8,1.8v18.1c0,0.9,0.6,1.6,1.5,1.8l37.5,7.4c0.2,0,0.5,0,0.7,0l37.5-7.4
			c0.8-0.2,1.5-0.9,1.5-1.8v-18.1C141.9,232.7,141.1,231.9,140.1,231.9L140.1,231.9z M91.4,228.2c0-0.8,0.6-1.4,1.4-1.4h19.6
			c0.8,0,1.4,0.6,1.4,1.4v3.7H91.5L91.4,228.2z"/>
		<path style="fill:#169CFD;" d="M98.8,256h7.7c1,0,1.7,0.8,1.7,1.7v4.9c0,1-0.8,1.7-1.7,1.7h-7.7c-1,0-1.7-0.8-1.7-1.7v-4.9
			C97,256.8,97.8,256,98.8,256z"/>
		<path style="opacity:0.3;fill:#FFFFFF;enable-background:new    ;" d="M98.8,256h7.7c1,0,1.7,0.8,1.7,1.7v4.9c0,1-0.8,1.7-1.7,1.7
			h-7.7c-1,0-1.7-0.8-1.7-1.7v-4.9C97,256.8,97.8,256,98.8,256z"/>
		<path style="fill:#169CFD;" d="M66.7,27.9h71.8c1,0,1.8,0.8,1.8,1.8v30c0,1-0.8,1.8-1.8,1.8H66.7c-1,0-1.8-0.8-1.8-1.8v-30
			C64.9,28.8,65.7,27.9,66.7,27.9z"/>
		<path style="opacity:0.6;fill:#FFFFFF;enable-background:new    ;" d="M66.7,27.9h71.8c1,0,1.8,0.8,1.8,1.8v30
			c0,1-0.8,1.8-1.8,1.8H66.7c-1,0-1.8-0.8-1.8-1.8v-30C64.9,28.8,65.7,27.9,66.7,27.9z"/>
		<path style="opacity:0.1;enable-background:new    ;" d="M138.6,27.9H66.7c-1,0-1.8,0.8-1.8,1.8v9.6l37.4,7.4c0.2,0,0.5,0,0.7,0
			l37.4-7.4v-9.6C140.4,28.8,139.6,28,138.6,27.9z"/>
		<path style="fill:#169CFD;" d="M140.1,15.6h-21.9V12c0-3.2-2.6-5.7-5.7-5.7H92.8c-3.2,0-5.7,2.6-5.7,5.7v3.7H65.2
			c-1,0-1.8,0.8-1.8,1.8l0,0l0,0v18.1c0,0.9,0.6,1.6,1.5,1.8l37.5,7.3c0.2,0,0.5,0,0.7,0l37.5-7.4c0.8-0.2,1.5-0.9,1.5-1.8V17.5
			C141.9,16.5,141.1,15.6,140.1,15.6L140.1,15.6z M91.4,12c0-0.8,0.6-1.4,1.4-1.4h19.6c0.8,0,1.4,0.6,1.4,1.4v3.7H91.5L91.4,12z"/>
		<path style="opacity:0.6;fill:#FFFFFF;enable-background:new    ;" d="M140.1,15.6h-21.9V12c0-3.2-2.6-5.7-5.7-5.7H92.8
			c-3.2,0-5.7,2.6-5.7,5.7v3.7H65.2c-1,0-1.8,0.8-1.8,1.8l0,0l0,0v18.1c0,0.9,0.6,1.6,1.5,1.8l37.5,7.3c0.2,0,0.5,0,0.7,0l37.5-7.4
			c0.8-0.2,1.5-0.9,1.5-1.8V17.5C141.9,16.5,141.1,15.6,140.1,15.6L140.1,15.6z M91.4,12c0-0.8,0.6-1.4,1.4-1.4h19.6
			c0.8,0,1.4,0.6,1.4,1.4v3.7H91.5L91.4,12z"/>
		<path style="fill:#169CFD;" d="M98.8,39.8h7.7c1,0,1.7,0.8,1.7,1.7v4.9c0,1-0.8,1.7-1.7,1.7h-7.7c-1,0-1.7-0.8-1.7-1.7v-4.9
			C97,40.6,97.8,39.8,98.8,39.8z"/>
		<path style="opacity:0.3;fill:#FFFFFF;enable-background:new    ;" d="M98.8,39.8h7.7c1,0,1.7,0.8,1.7,1.7v4.9
			c0,1-0.8,1.7-1.7,1.7h-7.7c-1,0-1.7-0.8-1.7-1.7v-4.9C97,40.6,97.8,39.8,98.8,39.8z"/>
		<path style="fill:#169CFD;" d="M129.2,169.7H66.7c-1,0-1.8-0.8-1.8-1.8l0,0l0,0v-29.9c0-0.2,0.1-0.5,0.2-0.7
			c0-0.1,0.1-0.2,0.2-0.3c0.1-0.1,0.1-0.2,0.2-0.3c0.3-0.3,0.8-0.5,1.3-0.5h59.1c-0.5,4.1-0.7,8.2-0.5,12.4c0,0.7,0,1.3,0.1,2
			c0.1,1.2,0.2,2.5,0.3,3.7C126.4,159.4,127.5,164.7,129.2,169.7z"/>
		<path style="opacity:0.6;fill:#FFFFFF;enable-background:new    ;" d="M129.2,169.7H66.7c-1,0-1.8-0.8-1.8-1.8l0,0l0,0v-29.9
			c0-0.2,0.1-0.5,0.2-0.7c0-0.1,0.1-0.2,0.2-0.3c0.1-0.1,0.1-0.2,0.2-0.3c0.3-0.3,0.8-0.5,1.3-0.5h59.1c-0.5,4.1-0.7,8.2-0.5,12.4
			c0,0.7,0,1.3,0.1,2c0.1,1.2,0.2,2.5,0.3,3.7C126.4,159.4,127.5,164.7,129.2,169.7z"/>
		<path style="opacity:0.1;enable-background:new    ;" d="M125.8,136.1c-0.5,4.1-0.7,8.2-0.5,12.4c0,0.7,0,1.3,0.1,2l-17.2,3.4
			l-5.3,1c-0.2,0.1-0.5,0.1-0.7,0l-5.3-1l-32.1-6.3v-9.6c0-0.2,0-0.5,0.1-0.7c0-0.1,0.1-0.2,0.2-0.3c0.1-0.1,0.1-0.2,0.2-0.3
			c0.3-0.3,0.8-0.5,1.3-0.5H125.8z"/>
		<path style="fill:#169CFD;" d="M128.3,123.8h-10.1v-3.7c0-3.2-2.6-5.7-5.7-5.7H92.8c-3.2,0-5.7,2.6-5.7,5.7c0,0,0,0,0,0l0,0v3.7
			H65.2c-1,0-1.8,0.8-1.8,1.8c0,0,0,0,0,0l0,0v18.1c0,0.9,0.6,1.6,1.5,1.8h0.1l32.1,6.3l5.3,1c0.2,0,0.5,0,0.7,0l5.3-1l17.1-3.4
			c-0.2-4.1,0-8.3,0.5-12.4C126.3,131.9,127.2,127.8,128.3,123.8z M91.4,120.1c0-0.8,0.6-1.4,1.4-1.4h19.6c0.8,0,1.4,0.6,1.4,1.4
			v3.7H91.5L91.4,120.1z"/>
		<path style="opacity:0.6;fill:#FFFFFF;enable-background:new    ;" d="M128.3,123.8h-10.1v-3.7c0-3.2-2.6-5.7-5.7-5.7H92.8
			c-3.2,0-5.7,2.6-5.7,5.7c0,0,0,0,0,0l0,0v3.7H65.2c-1,0-1.8,0.8-1.8,1.8c0,0,0,0,0,0l0,0v18.1c0,0.9,0.6,1.6,1.5,1.8h0.1l32.1,6.3
			l5.3,1c0.2,0,0.5,0,0.7,0l5.3-1l17.1-3.4c-0.2-4.1,0-8.3,0.5-12.4C126.3,131.9,127.2,127.8,128.3,123.8z M91.4,120.1
			c0-0.8,0.6-1.4,1.4-1.4h19.6c0.8,0,1.4,0.6,1.4,1.4v3.7H91.5L91.4,120.1z"/>
		<path style="fill:#169CFD;" d="M98.8,147.9h7.7c1,0,1.7,0.8,1.7,1.7v4.9c0,1-0.8,1.7-1.7,1.7h-7.7c-1,0-1.7-0.8-1.7-1.7v-4.9
			C97,148.7,97.8,147.9,98.8,147.9z"/>
		<path style="opacity:0.3;fill:#FFFFFF;enable-background:new    ;" d="M98.8,147.9h7.7c1,0,1.7,0.8,1.7,1.7v4.9
			c0,1-0.8,1.7-1.7,1.7h-7.7c-1,0-1.7-0.8-1.7-1.7v-4.9C97,148.7,97.8,147.9,98.8,147.9z"/>
		<path style="fill:#169CFD;" d="M290.5,244.2h71.8c1,0,1.8,0.8,1.8,1.8v30c0,1-0.8,1.8-1.8,1.8h-71.8c-1,0-1.8-0.8-1.8-1.8v-30
			C288.6,245,289.5,244.2,290.5,244.2z"/>
		<path style="opacity:0.6;fill:#FFFFFF;enable-background:new    ;" d="M290.5,244.2h71.8c1,0,1.8,0.8,1.8,1.8v30
			c0,1-0.8,1.8-1.8,1.8h-71.8c-1,0-1.8-0.8-1.8-1.8v-30C288.6,245,289.5,244.2,290.5,244.2z"/>
		<path style="opacity:0.1;enable-background:new    ;" d="M290.5,244.2h71.8c1,0,1.8,0.8,1.8,1.8v9.6l-37.4,7.4c-0.2,0-0.5,0-0.7,0
			l-37.4-7.4v-9.6C288.6,245,289.4,244.2,290.5,244.2L290.5,244.2z"/>
		<path style="fill:#169CFD;" d="M288.9,231.9h21.9v-3.7c0-3.2,2.6-5.7,5.7-5.7h19.6c3.2,0,5.7,2.6,5.7,5.7v3.7h21.9
			c1,0,1.8,0.8,1.8,1.8l0,0l0,0v18.1c0,0.9-0.6,1.6-1.5,1.8l-37.5,7.4c-0.2,0-0.5,0-0.7,0l-37.5-7.4c-0.8-0.2-1.5-0.9-1.5-1.8v-18.1
			C287.1,232.7,287.9,231.9,288.9,231.9L288.9,231.9L288.9,231.9z M337.6,228.2c0-0.8-0.6-1.4-1.4-1.4h-19.6c-0.8,0-1.4,0.6-1.4,1.4
			v3.7h22.3L337.6,228.2z"/>
		<path style="opacity:0.6;fill:#FFFFFF;enable-background:new    ;" d="M288.9,231.9h21.9v-3.7c0-3.2,2.6-5.7,5.7-5.7h19.6
			c3.2,0,5.7,2.6,5.7,5.7v3.7h21.9c1,0,1.8,0.8,1.8,1.8l0,0l0,0v18.1c0,0.9-0.6,1.6-1.5,1.8l-37.5,7.4c-0.2,0-0.5,0-0.7,0l-37.5-7.4
			c-0.8-0.2-1.5-0.9-1.5-1.8v-18.1C287.1,232.7,287.9,231.9,288.9,231.9L288.9,231.9L288.9,231.9z M337.6,228.2
			c0-0.8-0.6-1.4-1.4-1.4h-19.6c-0.8,0-1.4,0.6-1.4,1.4v3.7h22.3L337.6,228.2z"/>
		<path style="fill:#169CFD;" d="M322.5,256h7.7c1,0,1.7,0.8,1.7,1.7v4.9c0,1-0.8,1.7-1.7,1.7h-7.7c-1,0-1.7-0.8-1.7-1.7v-4.9
			C320.8,256.8,321.6,256,322.5,256z"/>
		<path style="opacity:0.3;fill:#FFFFFF;enable-background:new    ;" d="M322.5,256h7.7c1,0,1.7,0.8,1.7,1.7v4.9
			c0,1-0.8,1.7-1.7,1.7h-7.7c-1,0-1.7-0.8-1.7-1.7v-4.9C320.8,256.8,321.6,256,322.5,256z"/>
		<path style="fill:#169CFD;" d="M290.5,27.9h71.8c1,0,1.8,0.8,1.8,1.8v30c0,1-0.8,1.8-1.8,1.8h-71.8c-1,0-1.8-0.8-1.8-1.8v-30
			C288.6,28.8,289.5,27.9,290.5,27.9z"/>
		<path style="opacity:0.6;fill:#FFFFFF;enable-background:new    ;" d="M290.5,27.9h71.8c1,0,1.8,0.8,1.8,1.8v30
			c0,1-0.8,1.8-1.8,1.8h-71.8c-1,0-1.8-0.8-1.8-1.8v-30C288.6,28.8,289.5,27.9,290.5,27.9z"/>
		<path style="opacity:0.1;enable-background:new    ;" d="M290.5,27.9h71.8c1,0,1.8,0.8,1.8,1.8v9.6l-37.4,7.4c-0.2,0-0.5,0-0.7,0
			l-37.4-7.4v-9.6C288.6,28.8,289.5,27.9,290.5,27.9z"/>
		<path style="fill:#169CFD;" d="M288.9,15.6h21.9V12c0-3.2,2.6-5.7,5.7-5.7h19.6c3.2,0,5.8,2.5,5.8,5.7c0,0,0,0,0,0v3.7h21.9
			c1,0,1.8,0.8,1.8,1.8v0l0,0v18.1c0,0.8-0.6,1.6-1.4,1.8l-37.6,7.3c-0.2,0-0.5,0-0.7,0l-37.5-7.4c-0.8-0.2-1.5-0.9-1.5-1.8V17.5
			C287.1,16.5,287.9,15.6,288.9,15.6L288.9,15.6L288.9,15.6z M337.6,12c0-0.8-0.6-1.4-1.4-1.4h-19.6c-0.8,0-1.4,0.6-1.4,1.4v3.7
			h22.3L337.6,12z"/>
		<path style="opacity:0.6;fill:#FFFFFF;enable-background:new    ;" d="M288.9,15.6h21.9V12c0-3.2,2.6-5.7,5.7-5.7h19.6
			c3.2,0,5.8,2.5,5.8,5.7c0,0,0,0,0,0v3.7h21.9c1,0,1.8,0.8,1.8,1.8v0l0,0v18.1c0,0.8-0.6,1.6-1.4,1.8l-37.6,7.3c-0.2,0-0.5,0-0.7,0
			l-37.5-7.4c-0.8-0.2-1.5-0.9-1.5-1.8V17.5C287.1,16.5,287.9,15.6,288.9,15.6L288.9,15.6L288.9,15.6z M337.6,12
			c0-0.8-0.6-1.4-1.4-1.4h-19.6c-0.8,0-1.4,0.6-1.4,1.4v3.7h22.3L337.6,12z"/>
		<path style="fill:#169CFD;" d="M322.5,39.8h7.7c1,0,1.7,0.8,1.7,1.7v4.9c0,1-0.8,1.7-1.7,1.7h-7.7c-1,0-1.7-0.8-1.7-1.7v-4.9
			C320.8,40.6,321.6,39.8,322.5,39.8z"/>
		<path style="opacity:0.3;fill:#FFFFFF;enable-background:new    ;" d="M322.5,39.8h7.7c1,0,1.7,0.8,1.7,1.7v4.9
			c0,1-0.8,1.7-1.7,1.7h-7.7c-1,0-1.7-0.8-1.7-1.7v-4.9C320.8,40.6,321.6,39.8,322.5,39.8z"/>
		<path style="fill:#169CFD;" d="M299.9,169.7h62.4c1,0,1.8-0.8,1.8-1.8v-29.9c0-0.2-0.1-0.5-0.2-0.7c0-0.1-0.1-0.2-0.2-0.3
			c-0.1-0.1-0.1-0.2-0.2-0.3c-0.3-0.3-0.8-0.5-1.3-0.5h-59.1c0.5,4.1,0.7,8.2,0.5,12.4c0,0.7,0,1.3-0.1,2c-0.1,1.2-0.2,2.5-0.3,3.7
			C302.6,159.4,301.5,164.7,299.9,169.7z"/>
		<path style="opacity:0.6;fill:#FFFFFF;enable-background:new    ;" d="M299.9,169.7h62.4c1,0,1.8-0.8,1.8-1.8v-29.9
			c0-0.2-0.1-0.5-0.2-0.7c0-0.1-0.1-0.2-0.2-0.3c-0.1-0.1-0.1-0.2-0.2-0.3c-0.3-0.3-0.8-0.5-1.3-0.5h-59.1c0.5,4.1,0.7,8.2,0.5,12.4
			c0,0.7,0,1.3-0.1,2c-0.1,1.2-0.2,2.5-0.3,3.7C302.6,159.4,301.5,164.7,299.9,169.7z"/>
		<path style="opacity:0.1;enable-background:new    ;" d="M303.2,136.1c0.5,4.1,0.7,8.2,0.5,12.4c0,0.7,0,1.3-0.1,2l17.3,3.4l5.3,1
			c0.2,0.1,0.5,0.1,0.7,0l5.3-1l32.1-6.3v-9.6c0-0.2,0-0.5-0.1-0.7c0-0.1-0.1-0.2-0.2-0.3c-0.1-0.1-0.1-0.2-0.2-0.3
			c-0.3-0.3-0.8-0.5-1.3-0.5H303.2z"/>
		<path style="fill:#169CFD;" d="M300.7,123.8h10.1v-3.7c0-3.2,2.6-5.7,5.7-5.7h19.6c3.2,0,5.7,2.6,5.7,5.7v3.7h21.9
			c1,0,1.8,0.8,1.8,1.8l0,0l0,0v18.1c0,0.9-0.6,1.6-1.5,1.8h-0.1l-32.1,6.3l-5.3,1c-0.2,0-0.5,0-0.7,0l-5.3-1l-17.1-3.4
			C303.9,140.1,302.9,131.8,300.7,123.8L300.7,123.8z M337.6,120.1c0-0.8-0.6-1.4-1.4-1.4h-19.6c-0.8,0-1.4,0.6-1.4,1.4v3.7h22.3
			L337.6,120.1z"/>
		<path style="opacity:0.6;fill:#FFFFFF;enable-background:new    ;" d="M300.7,123.8h10.1v-3.7c0-3.2,2.6-5.7,5.7-5.7h19.6
			c3.2,0,5.7,2.6,5.7,5.7v3.7h21.9c1,0,1.8,0.8,1.8,1.8l0,0l0,0v18.1c0,0.9-0.6,1.6-1.5,1.8h-0.1l-32.1,6.3l-5.3,1
			c-0.2,0-0.5,0-0.7,0l-5.3-1l-17.1-3.4C303.9,140.1,302.9,131.8,300.7,123.8L300.7,123.8z M337.6,120.1c0-0.8-0.6-1.4-1.4-1.4
			h-19.6c-0.8,0-1.4,0.6-1.4,1.4v3.7h22.3L337.6,120.1z"/>
		<path style="fill:#169CFD;" d="M322.5,147.9h7.7c1,0,1.7,0.8,1.7,1.7v4.9c0,1-0.8,1.7-1.7,1.7h-7.7c-1,0-1.7-0.8-1.7-1.7v-4.9
			C320.8,148.7,321.6,147.9,322.5,147.9z"/>
		<path style="opacity:0.3;fill:#FFFFFF;enable-background:new    ;" d="M322.5,147.9h7.7c1,0,1.7,0.8,1.7,1.7v4.9
			c0,1-0.8,1.7-1.7,1.7h-7.7c-1,0-1.7-0.8-1.7-1.7v-4.9C320.8,148.7,321.6,147.9,322.5,147.9z"/>
		<path style="fill:#169CFD;" d="M166.7,128.8h103.2c1.5,0,2.6,1.2,2.6,2.6v43c0,1.5-1.2,2.6-2.6,2.6H166.7c-1.5,0-2.6-1.2-2.6-2.6
			v-43C164.1,130,165.3,128.8,166.7,128.8z"/>
		<path style="fill:#169CFD;" d="M232.4,121.1h-28.2c-4.4,0-8-3.6-8.1-8.1v-7.2c0-4.4,3.6-8,8.1-8.1h28.2c4.4,0,8.1,3.6,8.1,8.1v0
			l0,0v7.2C240.4,117.5,236.9,121.1,232.4,121.1C232.4,121.1,232.4,121.1,232.4,121.1L232.4,121.1z M204.2,103.7
			c-1.2,0-2.1,1-2.2,2.1v7.2c0,1.2,1,2.2,2.2,2.2h0h28.2c1.2,0,2.2-1,2.2-2.2v0l0,0v-7.2c0-1.2-1-2.2-2.2-2.2h0l0,0L204.2,103.7z"/>
		<path style="opacity:0.2;enable-background:new    ;" d="M269.9,128.8H166.7c-1.5,0-2.6,1.2-2.6,2.6c0,0,0,0,0,0l0,0v13.8
			l53.7,10.6c0.3,0.1,0.7,0.1,1,0l53.7-10.6v-13.8C272.5,130,271.4,128.8,269.9,128.8L269.9,128.8z"/>
		<path style="fill:#169CFD;" d="M272.6,142.3l-53.8,10.6c-0.3,0.1-0.7,0.1-1,0l-53.8-10.6c-1.2-0.2-2.1-1.3-2.1-2.6v-26
			c0-1.4,1.2-2.6,2.6-2.6h0h107.7c1.4,0,2.6,1.2,2.6,2.6v26C274.7,141,273.8,142,272.6,142.3z"/>
		<path style="fill:#169CFD;" d="M212.7,145.8h11.1c1.4,0,2.5,1.1,2.5,2.5v7c0,1.4-1.1,2.5-2.5,2.5h-11.1c-1.4,0-2.5-1.1-2.5-2.5v-7
			C210.3,146.9,211.4,145.8,212.7,145.8z"/>
		<path style="opacity:0.4;enable-background:new    ;" d="M212.7,145.8h11.1c1.4,0,2.5,1.1,2.5,2.5v7c0,1.4-1.1,2.5-2.5,2.5h-11.1
			c-1.4,0-2.5-1.1-2.5-2.5v-7C210.3,146.9,211.4,145.8,212.7,145.8z"/>
	</g>
	<g id="freepik--Character--inject-2">
		<path style="fill:#7F3E3B;" d="M412.4,155.4c1.4,2.8,2.4,5.4,3.5,8.2c1.2,2.8,2,5.5,3,8.3c1.9,5.7,3.2,11.5,4.1,17.5
			c0.1,0.7,0.2,1.5,0.3,2.4l0.1,1.2v1.4c0,1.8-0.1,3.6-0.5,5.3c-0.6,3-1.4,6-2.5,8.9c-2,5.5-4.5,10.9-7.5,15.9l-6-2.5
			c1.3-5.4,2.7-10.8,3.7-16.1c0.5-2.5,0.8-5.1,1-7.7c0.1-1.1,0-2.1-0.1-3.2l-0.1-0.7l-0.2-0.9c-0.1-0.6-0.2-1.2-0.4-1.9
			c-1.2-5.2-2.7-10.3-4.5-15.3c-0.9-2.6-1.9-5.1-2.9-7.6s-2.1-5.1-3.1-7.5L412.4,155.4z"/>
		<path style="fill:#7F3E3B;" d="M407.2,220.4l-4.6,4.5l10,4.7c0,0,2.4-4.2,0.8-8.1L407.2,220.4z"/>
		<polygon style="fill:#7F3E3B;" points="398.9,231.5 407.4,235 412.6,229.5 402.6,224.8 		"/>
		<path style="opacity:0.2;fill:#169CFD;enable-background:new    ;" d="M227.7,226.7c46.5-5.2,79.9-47.1,74.7-93.5
			c-5.2-46.5-47.1-79.9-93.5-74.7c-46.4,5.2-79.9,47.1-74.7,93.5C139.3,198.4,181.2,231.9,227.7,226.7
			C227.7,226.7,227.7,226.7,227.7,226.7z"/>
		<path style="opacity:0.1;fill:#FFFFFF;enable-background:new    ;" d="M166.1,75.9l128.7,102.8c0.6-1.2,1.1-2.4,1.6-3.5
			c3.2-7.7,5.3-15.8,6.1-24.1l0,0L191.3,62.3C182.2,65.4,173.7,69.9,166.1,75.9z"/>
		<path style="opacity:0.1;fill:#FFFFFF;enable-background:new    ;" d="M136.4,120.9l121,96.7c11.5-6,21.5-14.6,29.1-25L154.4,87
			C145.9,96.8,139.7,108.4,136.4,120.9z"/>
		<path style="fill:#169CFD;" d="M426.8,237.6c-0.2-2.1-0.9-4.2-2-6c-0.9-1.3-2.1-2.4-3.5-3.1l-8-3.9c-5.3-2.6-10.7-5.2-16.1-7.8
			c-5.4-2.6-10.8-5.1-16.2-7.7c-5.4-2.6-10.8-5-16.3-7.5c-10.9-4.9-21.8-9.7-32.8-14.4c-5.5-2.4-11-4.6-16.6-6.8l0,0
			c-3.4-1.3-5.1-5-4-8.5c16.3-51.4-12.2-106.3-63.6-122.6S141.5,61.6,125.2,113s12.2,106.3,63.6,122.6
			c40.7,12.9,85.1-2.1,109.5-37.1c2.1-3,6.1-3.8,9.2-2l0,0c5.1,3.1,10.3,6.1,15.5,9c10.4,5.9,20.8,11.7,31.3,17.3
			c5.3,2.8,10.6,5.6,15.8,8.4c5.2,2.8,10.6,5.5,15.9,8.2c5.3,2.7,10.6,5.4,16,8l8,4c1.4,0.7,3,1,4.5,0.9c2.1-0.1,4.2-0.9,6-2
			C424.9,247.6,427.4,242.7,426.8,237.6z M184.2,211.6c-38.2-18.8-53.8-65-35-103.2c18.8-38.2,65-53.8,103.2-35
			c38.2,18.8,53.8,65,35,103.2l0,0C268.6,214.8,222.4,230.4,184.2,211.6C184.2,211.6,184.2,211.6,184.2,211.6L184.2,211.6z"/>
		<path style="fill:#263238;" d="M368.1,119.1c0,0.7-0.4,1.3-0.8,1.3s-0.8-0.6-0.8-1.3c0-0.7,0.4-1.3,0.8-1.3
			S368.1,118.4,368.1,119.1z"/>
		<path style="fill:#630F0F;" d="M367.8,120.4c-0.8,2.1-1.9,4.1-3.3,6c1,0.7,2.2,0.9,3.3,0.6L367.8,120.4z"/>
		<path style="fill:#263238;" d="M370.5,115.2c0.2,0,0.4-0.2,0.4-0.4c0,0,0,0,0,0c0-0.1-0.1-0.2-0.2-0.3c-1.1-0.8-2.4-1-3.7-0.6
			c-0.2,0.1-0.4,0.3-0.3,0.5c0,0,0,0,0,0c0.1,0.2,0.3,0.3,0.5,0.3h0.1l0,0c1-0.3,2.1-0.1,2.9,0.5
			C370.4,115.2,370.4,115.2,370.5,115.2z"/>
		<path style="fill:#7F3E3B;" d="M391.8,124.3c-1.2,6.3-2.5,17.9,1.9,22.1c0,0-1.7,6.4-13.5,6.4c-12.9,0-6.2-6.4-6.2-6.4
			c7.1-1.7,6.9-6.9,5.6-11.8L391.8,124.3z"/>
		<path style="fill:#00487C;" d="M396.1,142.5c1,0.3-0.3,6.1-0.3,6.1s-1.6,4.1-21.6,2.6c-1.5-0.1-1-5.7,0.5-6.5
			C379.4,142.2,392.9,141.5,396.1,142.5z"/>
		<path style="fill:#169CFD;" d="M436.7,385.4c1.1-0.1,2.7-2.1,3.1-2.8c0-0.1,0-0.1,0-0.2c0-0.1-0.1-0.1-0.2-0.1
			c-0.1,0-3,0.5-3.7,1.6c-0.1,0.2-0.2,0.5-0.1,0.8c0.2,0.5,0.4,0.7,0.7,0.7L436.7,385.4z M439.2,382.8c-0.8,1.1-2,2.3-2.6,2.2
			c-0.1,0-0.2,0-0.3-0.4c0-0.2,0-0.3,0.1-0.5C437.1,383.4,438.1,382.9,439.2,382.8z"/>
		<path style="fill:#169CFD;" d="M439.1,382.8c0.2,0,0.4-0.1,0.6-0.1c0.1,0,0.1-0.1,0.1-0.2c0-0.1,0-0.2-0.1-0.2
			c-0.1-0.1-2-1.7-3.3-1.6l0,0c-0.3,0-0.6,0.2-0.8,0.4c-0.2,0.2-0.3,0.6-0.1,0.8C436,382.7,437.9,382.9,439.1,382.8z M439.2,382.4
			c-1.2,0.1-2.9-0.1-3.2-0.6c-0.1-0.1,0-0.3,0.1-0.4c0.1-0.2,0.3-0.3,0.5-0.3l0,0C437.5,381.3,438.4,381.7,439.2,382.4L439.2,382.4z
			"/>
		<path style="fill:#169CFD;" d="M355.9,416.3c0.9,0,1.8-0.1,2.7-0.2c0.1,0,0.1-0.1,0.2-0.2c0-0.1,0-0.2-0.1-0.2
			c-0.1-0.1-3.1-1.8-4.6-1.4c-0.3,0.1-0.5,0.2-0.6,0.5c-0.2,0.3-0.2,0.6,0,0.9C353.7,416.2,354.8,416.3,355.9,416.3z M357.9,415.8
			c-1.6,0.2-3.8,0.2-4.2-0.3c-0.1-0.1-0.1-0.2,0-0.5c0.1-0.1,0.2-0.2,0.4-0.3C355,414.4,356.8,415.2,357.9,415.8z"/>
		<path style="fill:#169CFD;" d="M358.4,416.1h0.1c0.1,0,0.1-0.1,0.1-0.2c-0.1-1.2-0.6-2.4-1.3-3.3c-0.3-0.3-0.8-0.4-1.2-0.4
			c-0.6,0.1-0.7,0.3-0.8,0.6c-0.2,1,1.9,2.8,3,3.3L358.4,416.1z M356.3,412.5c0.3,0,0.5,0.1,0.7,0.3c0.7,0.7,1.1,1.7,1.2,2.7
			c-1.1-0.6-2.5-2.1-2.4-2.7C355.9,412.8,355.9,412.6,356.3,412.5L356.3,412.5z"/>
		<polygon style="fill:#7F3E3B;" points="368,415.9 359.3,415.9 358.5,395.9 367.1,395.9 		"/>
		<polygon style="fill:#7F3E3B;" points="447.3,376.2 440.6,381.6 423.5,369.7 430.2,364.3 		"/>
		<path style="fill:#263238;" d="M439.4,381.3l6.9-6.8c0.3-0.2,0.6-0.3,0.9-0.1l6.6,4.3c0.6,0.4,0.8,1.2,0.4,1.7c0,0,0,0,0,0
			c-0.1,0.1-0.1,0.2-0.2,0.2c-2.4,2.4-3.8,3.4-6.8,6.4c-1.9,1.9-6.4,7.4-9,9.9c-2.6,2.6-5.4,0.3-4.6-0.9c3.7-5.7,5-10.4,5.1-13.3
			C438.8,382.1,439,381.7,439.4,381.3z"/>
		<path style="fill:#263238;" d="M359.4,414.9h9.4c0.4,0,0.7,0.2,0.7,0.6l1.7,7.7c0.2,0.7-0.3,1.3-0.9,1.5c-0.1,0-0.2,0-0.3,0
			c-3.4,0-8.3-0.2-12.6-0.2c-5,0-9.3,0.3-15.2,0.3c-3.5,0-4.5-3.6-3-3.9c6.8-1.5,12.3-1.6,18.1-5.2
			C357.9,415.1,358.6,414.9,359.4,414.9z"/>
		<path style="fill:#169CFD;" d="M410.8,149c7.5,3.5,10.6,27.7,10.6,27.7l-17.2,6.8c-2.7-6.5-4.8-13.3-6.5-20.2
			C395.3,152.4,403.1,145.4,410.8,149z"/>
		<path style="opacity:0.3;fill:#169CFD;enable-background:new    ;" d="M410.8,149c7.5,3.5,10.6,27.7,10.6,27.7l-17.2,6.8
			c-2.7-6.5-4.8-13.3-6.5-20.2C395.3,152.4,403.1,145.4,410.8,149z"/>
		<path style="opacity:0.2;enable-background:new    ;" d="M399.6,156.1c-0.6-0.3-1.2-0.5-1.8-0.7c-0.7,2.6-0.7,5.3-0.1,7.9
			c1.6,6.9,3.8,13.6,6.5,20.2l5.7-2.2C408.8,175,405.6,159,399.6,156.1z"/>
		<path style="fill:#169CFD;" d="M360.9,148.8c0,0-9.2,10.4-0.5,74.7h46.2c0.3-7.1-4.1-41.7,2.7-75.1c-5.1-1-10.3-1.6-15.5-2
			c-6.5-0.4-13.1-0.4-19.6,0C369.7,146.9,365.2,147.7,360.9,148.8z"/>
		<path style="opacity:0.3;fill:#169CFD;enable-background:new    ;" d="M360.9,148.8c0,0-9.2,10.4-0.5,74.7h46.2
			c0.3-7.1-4.1-41.7,2.7-75.1c-5.1-1-10.3-1.6-15.5-2c-6.5-0.4-13.1-0.4-19.6,0C369.7,146.9,365.2,147.7,360.9,148.8z"/>
		<path style="opacity:0.2;enable-background:new    ;" d="M370.2,162.6c-2.1-6.3-7.1-8.3-12.3-4.6c-1,6.1-1.8,15.9-0.9,31.5l9-0.1
			C366,189.5,373.3,172,370.2,162.6z"/>
		<path style="fill:#7F3E3B;" d="M368.5,160.1c-0.4,3.2-0.9,6-1.5,9c-0.6,3-1.2,5.9-2,8.8c-1.5,6-3.6,11.8-6.1,17.4
			c-0.7,1.4-1.4,2.9-2.3,4.3c-0.4,0.7-0.8,1.4-1.3,2.1c-0.6,1-1.4,1.9-2.2,2.7c-1.6,1.5-3.5,2.6-5.6,3.4c-1.7,0.6-3.5,1-5.3,1.2
			c-3.2,0.4-6.4,0.4-9.6,0.1c-1.6-0.1-3.1-0.3-4.6-0.6c-1.5-0.3-3-0.6-4.5-1l0.8-6.4c5.4-0.2,10.7-1,15.9-2.4
			c1.1-0.3,2.1-0.7,3.1-1.2c0.6-0.3,1.2-0.7,1.6-1.3c-0.1,0.1,0.8-1.3,1.3-2.4c0.5-1,1.1-2.4,1.6-3.5c1-2.4,1.8-5,2.6-7.6
			c0.8-2.6,1.5-5.3,2.1-8c0.6-2.7,1.2-5.4,1.8-8.2s1-5.6,1.4-8.2L368.5,160.1z"/>
		<path style="fill:#169CFD;" d="M372.4,155.2c2.4,7.9-7.4,31.4-7.4,31.4l-20.8-5.2c1.3-7.4,3.4-14.7,6.4-21.6
			C357.3,145.1,369.5,145.7,372.4,155.2z"/>
		<path style="opacity:0.3;fill:#169CFD;enable-background:new    ;" d="M372.4,155.2c2.4,7.9-7.4,31.4-7.4,31.4l-20.8-5.2
			c1.3-7.4,3.4-14.7,6.4-21.6C357.3,145.1,369.5,145.7,372.4,155.2z"/>
		<path style="fill:#7F3E3B;" d="M324.5,201.1l-9.8-0.2l4.7,10.2c0,0,4,0.5,7.2-4.8l3.4-4.1l-4-0.8
			C325.6,201.2,325,201.1,324.5,201.1z"/>
		<polygon style="fill:#7F3E3B;" points="308.5,202.8 314.1,211.2 319.4,211 314.7,200.9 		"/>
		<polygon style="opacity:0.2;enable-background:new    ;" points="358.5,395.9 358.9,406.2 367.6,406.2 367.1,395.9 		"/>
		<polygon style="opacity:0.2;enable-background:new    ;" points="430.2,364.3 423.5,369.7 432.3,375.9 439.1,370.5 		"/>
		<path style="fill:#7F3E3B;" d="M391.3,117.6c-0.5,8.6-0.4,13.6-4.7,18c-6.5,6.6-17.1,2.7-19.1-5.9c-1.8-7.7-0.7-20.4,7.7-23.8
			c6-2.5,12.8,0.4,15.3,6.4C391.2,113.9,391.5,115.7,391.3,117.6z"/>
		<path style="fill:#263238;" d="M398.3,109.6c0,0,4.5,1.3,3.1,6.5c-2.1,7.8-7.1,16.8-13.6,17.4c-8.1,0.7-11.7-7.6-12.7-16.2
			c-4.8-3.3-8.4-6.4-7.2-9.8c1.8-5.3,8.2-9.9,18.3-8.7S401.4,106.5,398.3,109.6z"/>
		<path style="fill:#7F3E3B;" d="M379.9,119c-0.2,2.1-1,4.1-2.4,5.7c-1.9,2.1-3.9,0.8-4.2-1.7c-0.3-2.3,0.3-6.1,2.6-7.2
			S380.1,116.5,379.9,119z"/>
		<path style="fill:#00487C;" d="M376.7,223.5c0,0-2.9,58.2,2.8,82.9c9,39.1,57.2,79,57.2,79l12.7-10.2c0,0-41.1-32.9-44.1-65.4
			c-2.6-29.2,1.3-62.7,1.3-86.3L376.7,223.5z"/>
		<path style="opacity:0.2;enable-background:new    ;" d="M381.1,240.7c-1.2-2.3-3.5,4.5-5.1,13.2c0,12,0.2,25.6,1.3,37.1
			C385.2,276.3,383.6,245.5,381.1,240.7z"/>
		<path style="fill:#00487C;" d="M360.3,223.5c0,0-13,55.1-13.9,81.5c-1,29.5,11.3,111.3,11.3,111.3h14.6c0,0-0.2-82.3,0.4-109.2
			c0.7-29.3,17.9-83.6,17.9-83.6H360.3z"/>
	</g>
</g>
</svg>
