<?xml version="1.0" encoding="utf-8"?>
<!-- Generator: Adobe Illustrator 22.1.0, SVG Export Plug-In . SVG Version: 6.00 Build 0)  -->
<svg version="1.1" id="Layer_1" xmlns="http://www.w3.org/2000/svg" xmlns:xlink="http://www.w3.org/1999/xlink" x="0px" y="0px"
	 viewBox="0 0 517 438" style="enable-background:new 0 0 517 438;" xml:space="preserve">
<g id="freepik--background-complete--inject-9">
	<rect x="8.5" y="351.4" style="fill:#EBEBEB;" width="500" height="0.2"/>
	<rect x="346.4" y="362.6" style="fill:#EBEBEB;" width="10.5" height="0.2"/>
	<rect x="73.4" y="357.6" style="fill:#EBEBEB;" width="40.2" height="0.2"/>
	<rect x="133.7" y="358.3" style="fill:#EBEBEB;" width="59.2" height="0.2"/>
	<rect x="260.5" y="358.3" style="fill:#EBEBEB;" width="17" height="0.2"/>
	<rect x="399.9" y="359.9" style="fill:#EBEBEB;" width="54.6" height="0.2"/>
	<rect x="214.7" y="364" style="fill:#EBEBEB;" width="22.6" height="0.2"/>
	<rect x="460.4" y="360" style="fill:#EBEBEB;" width="14.3" height="0.2"/>
	<path style="fill:#EBEBEB;" d="M245.5,306.8H52.4c-3.1,0-5.7-2.6-5.7-5.7V29.7c0-3.1,2.6-5.7,5.7-5.7h193.1c3.2,0,5.7,2.6,5.7,5.7
		c0,0,0,0,0,0v271.4C251.2,304.2,248.7,306.8,245.5,306.8z M52.4,24.2c-3,0-5.5,2.4-5.5,5.5v271.4c0,3,2.4,5.5,5.5,5.5h193.1
		c3,0,5.5-2.4,5.5-5.5V29.7c0-3-2.4-5.5-5.5-5.5H52.4z"/>
	<path style="fill:#EBEBEB;" d="M461.8,306.8H268.7c-3.2,0-5.7-2.6-5.7-5.7V29.7c0-3.1,2.6-5.7,5.7-5.7h193.1c3.1,0,5.7,2.5,5.7,5.7
		v271.4C467.5,304.2,465,306.8,461.8,306.8z M268.7,24.2c-3,0-5.5,2.4-5.5,5.5v271.4c0,3,2.4,5.5,5.5,5.5h193.1c3,0,5.5-2.4,5.5-5.5
		V29.7c0-3-2.4-5.5-5.5-5.5H268.7z"/>
	<rect x="81.3" y="42.6" style="fill:#F5F5F5;" width="136.3" height="158.8"/>
	<rect x="77.6" y="42.6" style="fill:#F5F5F5;" width="138.2" height="158.8"/>
	<rect x="81.3" y="201.4" style="fill:#E6E6E6;" width="136.3" height="8.9"/>
	<rect x="60.7" y="201.4" style="fill:#F5F5F5;" width="130.1" height="8.9"/>
	<rect x="82.8" y="49.4" style="fill:#FAFAFA;" width="127.9" height="145.3"/>
	<polygon style="fill:#FFFFFF;" points="192.3,194.7 161.8,49.4 121.9,49.4 152.4,194.7 	"/>
	<polygon style="fill:#FFFFFF;" points="145.9,194.7 115.5,49.4 97.5,49.4 127.9,194.7 	"/>
	<rect x="82.8" y="48.5" style="fill:#FFFFFF;" width="0.7" height="131"/>
	<path style="fill:#E6E6E6;" d="M221.5,42.4v56.5h-15c0,0-26.9-17.5-33-53.6c-0.6-3.3,1.6-6.4,4.9-6.9c0.3-0.1,0.7-0.1,1-0.1h38
		C219.6,38.3,221.5,40.1,221.5,42.4C221.5,42.4,221.5,42.4,221.5,42.4z"/>
	<path style="fill:#E6E6E6;" d="M221.5,189.6v-86.1h-15c0,0-8.6,17.4-17.2,37.4c-7.6,17.8,0.7,38.3,18.5,45.9
		C212.1,188.6,216.8,189.6,221.5,189.6z"/>
	<path style="fill:#F5F5F5;" d="M220.9,103.5h-14c-0.8,0-1.5-0.7-1.5-1.5v-1.6c0-0.8,0.7-1.5,1.5-1.5h14c0.8,0,1.5,0.7,1.5,1.5v1.6
		C222.4,102.8,221.8,103.5,220.9,103.5z"/>
	<path style="fill:#E6E6E6;" d="M73.4,42.4v56.5h15c0,0,26.9-17.5,33-53.6c0.6-3.3-1.6-6.4-4.9-6.9c-0.3-0.1-0.7-0.1-1-0.1h-38
		C75.2,38.3,73.4,40.1,73.4,42.4C73.4,42.4,73.4,42.4,73.4,42.4z"/>
	<path style="fill:#E6E6E6;" d="M73.4,189.6v-86.1h15c0,0,8.6,17.4,17.2,37.4c7.6,17.8-0.7,38.3-18.5,45.9
		C82.7,188.6,78.1,189.6,73.4,189.6L73.4,189.6z"/>
	<path style="fill:#F5F5F5;" d="M73.9,98.9h14c0.8,0,1.5,0.7,1.5,1.5v1.6c0,0.8-0.7,1.5-1.5,1.5h-14c-0.8,0-1.5-0.7-1.5-1.5v-1.6
		C72.4,99.6,73.1,98.9,73.9,98.9z"/>
	<rect x="377.9" y="62.1" style="fill:#E0E0E0;" width="60" height="108.2"/>
	<rect x="371.1" y="62.1" style="fill:#F5F5F5;" width="65.2" height="108.2"/>
	<rect x="377.9" y="68.8" style="fill:#FFFFFF;" width="51.8" height="94.8"/>
	<rect x="395.9" y="88" style="fill:#F5F5F5;" width="15.6" height="14"/>
	<rect x="396" y="109.2" style="fill:#F5F5F5;" width="15.6" height="14"/>
	<rect x="396" y="130.5" style="fill:#F5F5F5;" width="15.6" height="14"/>
	<path style="fill:#E6E6E6;" d="M313.7,145c18.1-0.3,32.6-15.3,32.3-33.4c-0.3-17.7-14.6-32-32.3-32.3h-2V145H313.7z"/>
	
		<ellipse transform="matrix(0.9725 -0.2331 0.2331 0.9725 -17.5623 75.7375)" style="fill:#F5F5F5;" cx="311.6" cy="112.2" rx="32.8" ry="32.8"/>
	
		<ellipse transform="matrix(0.9869 -0.1614 0.1614 0.9869 -14.0244 51.7803)" style="fill:#FFFFFF;" cx="311.6" cy="112.2" rx="24.8" ry="24.8"/>
	<polygon style="fill:#E6E6E6;" points="301.4,121.4 299.5,118.6 309.8,111.5 306.4,94.9 309.7,94.2 313.5,112.9 	"/>
	<rect x="152" y="239" style="fill:#E6E6E6;" width="42.9" height="115.9"/>
	<polygon style="fill:#F0F0F0;" points="163.5,354.9 152,354.9 152,335.7 175.5,335.7 	"/>
	<rect x="409.2" y="239" style="fill:#F0F0F0;" width="42.9" height="115.9"/>
	<rect x="152" y="239" style="fill:#FAFAFA;" width="267.3" height="109.3"/>
	<polygon style="fill:#F0F0F0;" points="407.8,354.9 419.3,354.9 419.3,335.7 395.8,335.7 	"/>
	<rect x="160.9" y="248.4" style="fill:#F0F0F0;" width="249.5" height="40.2"/>
	<rect x="160.9" y="298.4" style="fill:#F0F0F0;" width="249.5" height="40.2"/>
	<circle style="fill:#F5F5F5;" cx="344.4" cy="218.7" r="9"/>
	<path style="fill:#F5F5F5;" d="M350.7,223c0,3.9,3.1,7,7,7s7-3.1,7-7s-3.1-7-7-7S350.7,219.1,350.7,223z"/>
	<circle style="fill:#F5F5F5;" cx="329.1" cy="223" r="9"/>
	<circle style="fill:#F5F5F5;" cx="314.4" cy="220.4" r="9"/>
	<path style="fill:#E6E6E6;" d="M382.4,221.5c0,0-1.2,17.5-48.4,17.5s-48.4-17.5-48.4-17.5H382.4z"/>
</g>
<g id="freepik--Shadow--inject-9">
	<ellipse style="fill:#F5F5F5;" cx="258.5" cy="385.2" rx="193.9" ry="11.3"/>
</g>
<g id="freepik--Character--inject-9">
	<path style="fill:#B97964;" d="M214.8,129.6c0.1,0.4,0.4,1.1,0.6,1.7l0.6,1.8c0.4,1.2,0.9,2.4,1.4,3.5c1,2.3,2.1,4.6,3.4,6.8
		c2.5,4.3,5.4,8.2,9,10.7l0.6,0.4l0,0c0,0,0,0.1,0.1,0.1c0.7,0,1.3-0.2,1.9-0.5c2-1.1,3.9-2.5,5.6-4.1c1.9-1.8,3.8-3.6,5.5-5.6
		c1.8-2,3.5-4.1,5.2-6.1l4.8,2.9c-2.5,5.3-5.6,10.2-9.3,14.7c-2,2.5-4.4,4.7-7.1,6.4c-1.8,1.1-3.8,1.9-5.8,2.1
		c-1.3,0.1-2.7,0-3.9-0.4c-0.7-0.2-1.3-0.5-1.9-0.8l-1.1-0.6c-2.8-1.7-5.3-3.8-7.5-6.2c-2.1-2.3-4-4.8-5.6-7.4c-1.6-2.6-3-5.2-4.2-8
		c-0.6-1.4-1.1-2.7-1.7-4.1c-0.3-0.7-0.5-1.4-0.7-2.1s-0.4-1.4-0.7-2.3L214.8,129.6z"/>
	<path style="fill:#169CFD;" d="M225.1,147.3l-12.8,7.1c0,0-0.4-0.6-1-1.5c-0.4-0.7-1-1.6-1.7-2.7c-3.8-6.1-10-17.3-8.4-22
		c2.5-7.3,11.7-7.2,16.2,1.3c2.2,4.2,4.1,8.5,5.9,12.9c0.5,1.2,0.9,2.2,1.2,3C224.9,146.6,225.1,147.3,225.1,147.3z"/>
	<path style="opacity:0.2;fill:#169CFD;enable-background:new    ;" d="M225.1,147.3l-12.8,7.1c0,0-0.4-0.6-1-1.5
		c-0.4-0.7-1-1.6-1.7-2.7c-3.8-6.1-10-17.3-8.4-22c2.5-7.3,11.7-7.2,16.2,1.3c2.2,4.2,4.1,8.5,5.9,12.9c0.5,1.2,0.9,2.2,1.2,3
		C224.9,146.6,225.1,147.3,225.1,147.3z"/>
	<path style="opacity:0.2;enable-background:new    ;" d="M224.5,145.5l-13.1,7.4c-0.4-0.7-1-1.6-1.7-2.7l13.7-7.7
		C223.8,143.6,224.2,144.7,224.5,145.5z"/>
	<path style="opacity:0.2;enable-background:new    ;" d="M201.1,129.1c2.9-1.4,6.2-0.2,9.6,5.2s6.4,14.7,6.8,17.2l-5.1,2.8
		C212.4,154.4,200,136.4,201.1,129.1z"/>
	<path style="fill:#169CFD;" d="M212.9,187.6h-39.7c-0.3-3.5,0.5-15.1-0.1-29.7c-0.4-10.9-1.7-21.7-3.9-32.3
		c-0.2-0.8-0.4-1.6-0.6-2.4c0,0,2-0.4,4.9-0.8c2.4-0.4,5.4-0.7,8.3-0.9c5.6-0.3,11.2-0.3,16.9,0c2.6,0.2,5.1,0.7,7.1,1.1
		c2.6,0.5,4.3,1,4.3,1S219.8,145.9,212.9,187.6z"/>
	<path style="opacity:0.2;fill:#169CFD;enable-background:new    ;" d="M212.9,187.6h-39.7c-0.3-3.5,0.5-15.1-0.1-29.7
		c-0.4-10.9-1.7-21.7-3.9-32.3c-0.2-0.8-0.4-1.6-0.6-2.4c0,0,2-0.4,4.9-0.8c2.4-0.4,5.4-0.7,8.3-0.9c5.6-0.3,11.2-0.3,16.9,0
		c2.6,0.2,5.1,0.7,7.1,1.1c2.6,0.5,4.3,1,4.3,1S219.8,145.9,212.9,187.6z"/>
	<polygon style="fill:#B97964;" points="158.9,364.9 164.8,370.1 175.9,358.5 170.1,353.2 	"/>
	<polygon style="fill:#B97964;" points="179,375.8 186.4,375.8 187.4,358.6 180,358.6 	"/>
	<polygon style="fill:#A76755;" points="175.9,358.5 170.2,364.5 164.3,359.2 170.1,353.2 	"/>
	<polygon style="fill:#A76755;" points="180,358.6 187.4,358.6 186.9,367.5 179.5,367.5 	"/>
	<path style="fill:#00487C;" d="M212.6,187.2c0,0,7.8,54.1,10.5,83.5c2.1,23.6-48.9,94-48.9,94l-9.9-9.3c0,0,37.3-63.1,34.4-89.4
		c-2.8-25.5-12.2-78.8-12.2-78.8L212.6,187.2z"/>
	<path style="fill:#263238;" d="M186.8,375h-8.3c-0.3,0-0.5,0.2-0.5,0.5c0,0,0,0,0,0l-0.4,6.6c0,0.7,0.6,1.3,1.3,1.3
		c2.9,0,4.3-0.2,8-0.2c2.2,0,11.8,0.2,14.9,0.2s3-3.1,1.7-3.4c-5.9-1.2-13.2-3-15.3-4.6C187.8,375.1,187.3,375,186.8,375z"/>
	<path style="fill:#263238;" d="M166.4,368l-7.1-4.8c-0.2-0.2-0.6-0.2-0.8,0l-5.5,5.5c-0.4,0.5-0.4,1.1,0.1,1.6
		c0.1,0,0.1,0.1,0.2,0.1c4.6,3.5,7.9,6.1,10.4,9.1c3,3.4,4.6,3.9,11.6,3.9c3.2,0,5.1-2.7,3.8-3.1c-11.7-3.7-8.6-5.3-11.4-10.7
		C167.3,368.9,166.9,368.4,166.4,368z"/>
	<path style="fill:#B97964;" d="M247.9,139.6l2.6-8.2l6.6,4.9c0,0-3.6,7.3-6.1,6.6L247.9,139.6z"/>
	<polygon style="fill:#B97964;" points="257.4,128.3 261.1,132.9 257,136.3 250.4,131.4 	"/>
	<path style="opacity:0.2;enable-background:new    ;" d="M173.2,157.9c-0.4-10.9-1.7-21.7-3.9-32.3c2.6-0.2,7.2,0,7.9,4.3
		C178,134.4,177,145.3,173.2,157.9z"/>
	<path style="opacity:0.5;enable-background:new    ;" d="M198.7,266.1c-1.4-13.1-4.6-33.6-7.4-50.5c1.4-2.8,5.5-8.5,5.5-8.5
		c3.6,12.5,11.5,59.7,0.3,123.3c-11.7,18.9-22.9,34.3-22.9,34.3l-1.5-24.3C183.4,320.1,200.7,284.2,198.7,266.1z"/>
	<path style="fill:#B97964;" d="M175.9,133.9l-1.8,3c-0.6,1-1.2,2.1-1.7,3.1c-1.1,2.1-2.2,4.3-3.3,6.4c-1,2.1-2,4.3-2.9,6.5
		c-0.9,2.1-1.6,4.3-2.2,6.5l-0.1,0.4l-0.1,0.2c0,0.1,0,0,0,0c0,0.1-0.1,0.1-0.1,0.2c0,0.3,0,0.6,0,0.9c0.1,0.9,0.3,1.9,0.6,2.8
		c0.7,2.2,1.5,4.3,2.5,6.3c2,4.3,4.4,8.7,6.9,12.9l-4.4,3.4c-3.6-3.7-6.9-7.7-9.9-12.1c-1.5-2.3-2.9-4.7-4-7.2
		c-0.6-1.4-1.1-2.9-1.5-4.5c-0.2-0.9-0.3-1.9-0.3-2.8c0-0.6,0-1.1,0.1-1.7l0.1-0.4v-0.3l0.1-0.5c1.1-5.3,2.7-10.4,4.9-15.3
		c1.1-2.4,2.2-4.8,3.4-7.1c0.6-1.2,1.2-2.3,1.9-3.4s1.3-2.2,2.1-3.4L175.9,133.9z"/>
	<path style="fill:#169CFD;" d="M178.6,136.6c-1.8,5.1-4,10.1-6.4,15c-0.5,1.1-1,2.1-1.4,2.9c-0.7,1.4-1.1,2.2-1.1,2.2l-15-8.3
		c0,0,0.2-0.6,0.5-1.7c0.3-0.8,0.6-1.9,1-3.1c2.5-7.1,7.6-19.9,12.6-20.6C176.2,122.1,181.6,127.7,178.6,136.6z"/>
	<path style="opacity:0.2;enable-background:new    ;" d="M172.1,151.7c-0.5,1.1-1,2.1-1.4,2.9l-15.6-7.8c0.3-0.8,0.6-1.9,1-3.1
		L172.1,151.7z"/>
	<path style="fill:#169CFD;" d="M189.4,376.2c-0.7,0-1.3-0.1-2-0.3c-0.1,0-0.1-0.1-0.1-0.1c0-0.1,0-0.1,0.1-0.2
		c0.2-0.2,2.3-1.6,3.2-1.2c0.2,0.1,0.4,0.3,0.4,0.5c0.1,0.3,0,0.7-0.2,0.9C190.4,376.1,189.9,376.3,189.4,376.2z M187.9,375.7
		c1.3,0.3,2.3,0.2,2.6-0.1c0.1-0.2,0.2-0.4,0.1-0.6c0-0.1-0.1-0.2-0.2-0.2C190,374.6,188.8,375.2,187.9,375.7L187.9,375.7z"/>
	<path style="fill:#169CFD;" d="M187.5,376C187.5,376,187.4,376,187.5,376c-0.1,0-0.2-0.1-0.2-0.1c0-0.1-0.2-2.2,0.6-2.9
		c0.2-0.2,0.5-0.3,0.7-0.2c0.3,0,0.6,0.2,0.6,0.5C189.4,374,188.3,375.6,187.5,376L187.5,376z M188.5,373c-0.1,0-0.3,0.1-0.4,0.1
		c-0.4,0.7-0.6,1.5-0.5,2.4c0.6-0.5,1.4-1.7,1.3-2.2C188.9,373.1,188.8,373,188.5,373L188.5,373z"/>
	<path style="fill:#169CFD;" d="M171.2,372c-1.3-0.2-2.6-0.7-3.7-1.4c-0.1,0-0.1-0.1-0.1-0.2c0-0.1,0.1-0.1,0.1-0.1
		c0.4,0,3.9-0.3,4.6,0.5c0.1,0.1,0.1,0.3,0.1,0.5c-0.1,0.3-0.3,0.5-0.5,0.6C171.5,372,171.4,372,171.2,372z M168.2,370.6
		c1.6,0.9,2.9,1.3,3.4,1c0.2-0.1,0.3-0.2,0.3-0.4c0-0.1,0-0.1,0-0.2C171.5,370.6,169.6,370.5,168.2,370.6L168.2,370.6z"/>
	<path style="fill:#169CFD;" d="M167.6,370.6c-0.1,0-0.1,0-0.1-0.1c0-0.1,0-0.1,0-0.2c0.1-0.1,1.4-2.8,3.1-2
		c0.5,0.2,0.5,0.5,0.5,0.7C170.8,369.9,168.6,370.6,167.6,370.6L167.6,370.6z M169.9,368.6c-0.9,0-1.7,1.2-2,1.7
		c1.1-0.1,2.7-0.8,2.8-1.3c0-0.1-0.1-0.2-0.3-0.3C170.2,368.6,170,368.6,169.9,368.6z"/>
	<polygon style="fill:#169CFD;" points="163.6,354.9 174.7,365.3 178.3,361.5 165.6,349.9 	"/>
	<polygon style="opacity:0.7;fill:#FFFFFF;enable-background:new    ;" points="163.6,354.9 174.7,365.3 178.3,361.5 165.6,349.9 	
		"/>
	<path style="fill:#00487C;" d="M198.5,187.2c0,0,0.7,56.7-0.5,77.9c-1.3,23.2-7.9,100.2-7.9,100.2h-13.6c0,0,0.4-75.1-0.4-98.1
		c-0.9-25-3.2-80-3.2-80L198.5,187.2z"/>
	<polygon style="fill:#169CFD;" points="175.9,365.4 190.6,365.4 191.4,360.2 175.2,361 	"/>
	<polygon style="opacity:0.7;fill:#FFFFFF;enable-background:new    ;" points="175.9,365.4 190.6,365.4 191.4,360.2 175.2,361 	"/>
	<path style="opacity:0.2;fill:#169CFD;enable-background:new    ;" d="M178.6,136.6c-1.8,5.1-4,10.1-6.4,15c-0.5,1.1-1,2.1-1.4,2.9
		c-0.7,1.4-1.1,2.2-1.1,2.2l-15-8.3c0,0,0.2-0.6,0.5-1.7c0.3-0.8,0.6-1.9,1-3.1c2.5-7.1,7.6-19.9,12.6-20.6
		C176.2,122.1,181.6,127.7,178.6,136.6z"/>
	<path style="fill:#169CFD;" d="M205.1,127.2c-0.8,2.6-3,6.2-9.1,8l-1.6,0.5l-1.6-0.3c-12.6-2.2-17.2-9-18-10.3l-1.7-2.8
		c2.4-0.4,5.4-0.7,8.3-0.9c5.6-0.3,11.2-0.3,16.9,0c2.6,0.2,5.1,0.7,7.1,1.1C205.7,124.1,205.6,125.7,205.1,127.2z"/>
	<path style="opacity:0.4;enable-background:new    ;" d="M205.1,127.2c-0.8,2.6-3,6.2-9.1,8l-1.6,0.5l-1.6-0.3
		c-12.6-2.2-17.2-9-18-10.3l-1.7-2.8c2.4-0.4,5.4-0.7,8.3-0.9c5.6-0.3,11.2-0.3,16.9,0c2.6,0.2,5.1,0.7,7.1,1.1
		C205.7,124.1,205.6,125.7,205.1,127.2z"/>
	<path style="fill:#B97964;" d="M194.5,128.5c-10.1-1.8-13.2-7-13.2-7c3.7-3.6,2.3-13.5,1-18.9l4.5,3.7l6.1,5.1
		c-0.2,0.8-0.3,1.6-0.4,2.5c-0.3,3.3,0.5,6.4,5.4,7.5C198,121.4,202.1,126.3,194.5,128.5z"/>
	<path style="fill:#A76755;" d="M193,111.4c-0.2,0.8-0.3,1.6-0.4,2.5c-2.3-0.5-5.4-2.9-5.7-5.2c-0.1-0.8-0.1-1.6-0.1-2.3L193,111.4z
		"/>
	<path style="fill:#263238;" d="M197.1,83.6c3.7,1.7,5.7,11.9,1,14.2C193.4,100,190.2,80.5,197.1,83.6z"/>
	<path style="fill:#B97964;" d="M180.5,94.8c1.6,7.2,2.1,11.5,6.4,14.8c4.2,3.3,10.2,2.6,13.5-1.6c1.2-1.5,1.9-3.4,2-5.3
		c0.6-6.7-2.1-17.4-9.7-19.4c-5.1-1.5-10.5,1.4-12.1,6.5C180.2,91.4,180.1,93.1,180.5,94.8z"/>
	<path style="fill:#263238;" d="M172.1,87.6c-3.5,1.6-1.5,6.3,0.9,9.4c3.3,4.2,6.8,6.2,9.2,4.3c2.1-1.1,3.6-7.4,1.7-11.3
		c3.3-2.2,10.1,0.5,12.2-3s3.6-3.2,7.4-0.9s6.8-6.8-3-8.6c5.4,2.4,4.2,7.2,0.2,2.3c-2.8-3.4-9.5-7.2-14.1-2.1
		C183.1,81.5,171.1,75.7,172.1,87.6z"/>
	<path style="fill:#B97964;" d="M178.8,102.3c1.2,1.4,2.8,2.4,4.6,2.7c2.3,0.4,2.8-1.7,1.6-3.8c-1-1.8-3.5-4.2-5.5-3.7
		S177.3,100.5,178.8,102.3z"/>
	<path style="fill:#263238;" d="M191.8,95.5c0.1,0.6,0.5,1,0.9,1s0.6-0.6,0.5-1.2s-0.5-1-0.9-1S191.7,94.9,191.8,95.5z"/>
	<path style="fill:#263238;" d="M198.5,94.7c0.1,0.6,0.5,1,0.9,1s0.6-0.6,0.5-1.2s-0.5-1-0.9-1S198.5,94.1,198.5,94.7z"/>
	<path style="fill:#A24E3F;" d="M196.5,95.2c1,1.7,2.2,3.3,3.6,4.7c-0.7,0.7-1.8,1-2.8,0.9L196.5,95.2z"/>
	<path style="fill:#263238;" d="M195.1,102.7c-1.4,0-2.7-0.5-3.7-1.5c-0.1-0.1-0.1-0.2,0-0.2c0.1-0.1,0.2-0.1,0.2,0
		c1.1,1.1,2.6,1.6,4.1,1.4c0.1,0,0.2,0.1,0.2,0.1c0,0,0,0,0,0c0,0.1,0,0.2-0.1,0.2c0,0,0,0,0,0C195.6,102.7,195.4,102.7,195.1,102.7
		z"/>
	<path style="fill:#263238;" d="M189.4,93.6c-0.1,0-0.1,0-0.2,0c-0.2-0.1-0.2-0.3-0.1-0.5c0.5-1,1.5-1.7,2.6-1.8
		c0.2,0,0.3,0.2,0.3,0.4c0,0.2-0.1,0.3-0.3,0.3l0,0c-0.9,0.1-1.6,0.6-2.1,1.4C189.6,93.5,189.5,93.6,189.4,93.6z"/>
	<path style="fill:#263238;" d="M201.1,92c-0.1,0-0.2-0.1-0.3-0.2c-0.5-0.8-1.3-1.3-2.2-1.3c-0.2,0-0.4-0.2-0.4-0.3c0,0,0,0,0,0
		c0-0.2,0.2-0.3,0.4-0.3l0,0c1.1,0.1,2.2,0.7,2.8,1.7c0.1,0.2,0.1,0.4-0.1,0.5c0,0,0,0,0,0C201.2,92,201.1,92,201.1,92z"/>
	<polygon style="fill:#B97964;" points="184.6,184.6 181.2,191.5 175.3,188.9 179.1,180.3 	"/>
	<path style="fill:#B97964;" d="M171.8,181.6l7.4-1.3l-3.8,8.5c0,0-6.7,0-6.4-3.5L171.8,181.6z"/>
</g>
<g id="freepik--Folder--inject-9">
	<g style="opacity:0.9;">
		<path style="opacity:0.9;fill:#169CFD;enable-background:new    ;" d="M305.4,207.7L305.4,207.7c1.7-4.4,5.9-7.3,10.6-7.4h88.2
			c5.3,0,8.9,4.3,8,9.6l-27.9,166.5c-1,5.4-5.7,9.4-11.2,9.6H152.1c-4.3,0.2-8-3.2-8.2-7.6c0-0.7,0-1.3,0.2-2l23.7-141.8
			c1-5.4,5.7-9.4,11.2-9.6h101.8C291.2,225.1,301.4,217.9,305.4,207.7z"/>
	</g>
	<path style="opacity:0.5;fill:#FFFFFF;enable-background:new    ;" d="M305.4,207.7L305.4,207.7c1.7-4.4,5.9-7.3,10.6-7.4h88.2
		c5.3,0,8.9,4.3,8,9.6l-27.9,166.5c-1,5.4-5.7,9.4-11.2,9.6H152.1c-4.3,0.2-8-3.2-8.2-7.6c0-0.7,0-1.3,0.2-2l23.7-141.8
		c1-5.4,5.7-9.4,11.2-9.6h101.8C291.2,225.1,301.4,217.9,305.4,207.7z"/>
	<path style="opacity:0.9;fill:#169CFD;enable-background:new    ;" d="M270.4,59.9l-66.7,231.8l152.6,43.9l66.7-231.8L270.4,59.9z"
		/>
	<path style="opacity:0.7;fill:#FFFFFF;enable-background:new    ;" d="M270.4,59.9l-66.7,231.8l152.6,43.9l66.7-231.8L270.4,59.9z"
		/>
	<path style="opacity:0.9;fill:#169CFD;enable-background:new    ;" d="M267.4,70.2l-63.8,221.5L351,334.1l59.8-229.3L267.4,70.2z"
		/>
	<path style="opacity:0.6;fill:#169CFD;enable-background:new    ;" d="M267.4,70.2l-63.8,221.5L351,334.1l59.8-229.3L267.4,70.2z"
		/>
	<g style="opacity:0.9;">
		<path style="opacity:0.9;fill:#FFFFFF;enable-background:new    ;" d="M267.4,70.2l-63.8,221.5L351,334.1l59.8-229.3L267.4,70.2z"
			/>
		<path style="opacity:0.6;fill:#FFFFFF;enable-background:new    ;" d="M267.4,70.2l-63.8,221.5L351,334.1l59.8-229.3L267.4,70.2z"
			/>
	</g>
	
		<ellipse transform="matrix(0.7071 -0.7071 0.7071 0.7071 6.8953 246.2646)" style="fill:#169CFD;" cx="300.7" cy="114.8" rx="27.5" ry="27.5"/>
	<path style="fill:#FFFFFF;" d="M294.7,135.7c-11.6-3.3-18.2-15.4-14.9-27c3.3-11.6,15.4-18.2,27-14.9c11.6,3.3,18.2,15.4,14.9,27
		C318.4,132.4,306.3,139.1,294.7,135.7C294.7,135.7,294.7,135.7,294.7,135.7z"/>
	
		<rect x="279.8" y="131.9" transform="matrix(0.2765 -0.961 0.961 0.2765 55.512 388.0501)" style="fill:#169CFD;" width="11.4" height="50.5"/>
	
		<rect x="221.5" y="247.7" transform="matrix(0.2765 -0.961 0.961 0.2765 -75.1905 423.4264)" style="fill:#169CFD;" width="44.2" height="27.9"/>
	
		<rect x="316.3" y="275" transform="matrix(0.2765 -0.961 0.961 0.2765 -32.8417 534.1977)" style="fill:#169CFD;" width="44.2" height="27.9"/>
	
		<rect x="268.9" y="261.4" transform="matrix(0.2765 -0.961 0.961 0.2765 -54.0245 478.8109)" style="fill:#169CFD;" width="44.2" height="27.9"/>
	
		<rect x="326.9" y="153.6" transform="matrix(0.2765 -0.961 0.961 0.2765 76.5776 443.1153)" style="fill:#169CFD;" width="11.4" height="34.2"/>
	
		<rect x="313.1" y="125.4" transform="matrix(0.2765 -0.961 0.961 0.2765 47.5558 439.1074)" style="fill:#FFFFFF;" width="4.7" height="125.1"/>
	
		<rect x="280.1" y="157.7" transform="matrix(0.2765 -0.961 0.961 0.2765 22.8718 408.043)" style="fill:#FFFFFF;" width="4.7" height="62.2"/>
	
		<rect x="340.2" y="185.3" transform="matrix(0.2765 -0.961 0.961 0.2765 49.7452 478.3268)" style="fill:#FFFFFF;" width="4.7" height="41.6"/>
	
		<rect x="295.5" y="153.6" transform="matrix(0.2765 -0.961 0.961 0.2765 19.825 433.5449)" style="fill:#FFFFFF;" width="4.7" height="100"/>
	
		<rect x="298.8" y="158.5" transform="matrix(0.28 -0.96 0.96 0.28 9.417 444.6016)" style="fill:#FFFFFF;" width="4.7" height="115"/>
	
		<rect x="248.3" y="204.1" transform="matrix(0.2765 -0.961 0.961 0.2765 -21.1604 393.3646)" style="fill:#FFFFFF;" width="4.7" height="13.3"/>
	
		<rect x="293.1" y="194.3" transform="matrix(0.2765 -0.961 0.961 0.2765 -1.1262 445.768)" style="fill:#FFFFFF;" width="4.7" height="58.7"/>
	
		<rect x="299.3" y="173.2" transform="matrix(0.2765 -0.961 0.961 0.2765 -8.3133 460.4704)" style="fill:#FFFFFF;" width="4.7" height="125.1"/>
	<path style="fill:#169CFD;" d="M252.6,68l-58.6,234l154,38.6l58.6-234L252.6,68z"/>
	<path style="opacity:0.8;fill:#FFFFFF;enable-background:new    ;" d="M252.6,68l-58.6,234l154,38.6l58.6-234L252.6,68z"/>
	
		<ellipse transform="matrix(0.9665 -0.2568 0.2568 0.9665 -21.7135 77.2231)" style="fill:#169CFD;" cx="284.8" cy="121.8" rx="27.5" ry="27.5"/>
	
		<ellipse transform="matrix(0.3352 -0.9421 0.9421 0.3352 74.6043 349.2832)" style="fill:#FFFFFF;" cx="284.8" cy="121.8" rx="21.8" ry="21.8"/>
	
		<rect x="265.4" y="139.4" transform="matrix(0.2431 -0.97 0.97 0.2431 45.448 387.5648)" style="fill:#169CFD;" width="11.4" height="50.5"/>
	
		<rect x="210.8" y="256.6" transform="matrix(0.2431 -0.97 0.97 0.2431 -86.186 430.6277)" style="fill:#169CFD;" width="44.2" height="27.9"/>
	
		<rect x="306.4" y="280.6" transform="matrix(0.2431 -0.97 0.97 0.2431 -37.0641 541.5135)" style="fill:#169CFD;" width="44.2" height="27.9"/>
	
		<rect x="258.6" y="268.6" transform="matrix(0.2431 -0.97 0.97 0.2431 -61.6221 486.0742)" style="fill:#169CFD;" width="44.2" height="27.9"/>
	
		<rect x="312.9" y="159.5" transform="matrix(0.2431 -0.97 0.97 0.2431 69.8728 442.6833)" style="fill:#169CFD;" width="11.4" height="34.2"/>
	
		<rect x="299.7" y="131.9" transform="matrix(0.2431 -0.97 0.97 0.2431 40.025 440.1297)" style="fill:#FFFFFF;" width="4.7" height="125.1"/>
	
		<rect x="266.8" y="165.3" transform="matrix(0.2431 -0.97 0.97 0.2431 13.1721 409.7101)" style="fill:#FFFFFF;" width="4.7" height="62.2"/>
	
		<rect x="327.5" y="190.8" transform="matrix(0.2431 -0.97 0.97 0.2431 44.3476 480.0692)" style="fill:#FFFFFF;" width="4.7" height="41.6"/>
	
		<rect x="282.7" y="160.7" transform="matrix(0.2431 -0.97 0.97 0.2431 11.4015 435.9222)" style="fill:#FFFFFF;" width="4.7" height="100"/>
	
		<rect x="287.5" y="164.6" transform="matrix(0.2431 -0.97 0.97 0.2431 3.9389 449.301)" style="fill:#FFFFFF;" width="4.7" height="115"/>
	
		<rect x="235.8" y="212.8" transform="matrix(0.2431 -0.97 0.97 0.2431 -32.5987 397.0669)" style="fill:#FFFFFF;" width="4.7" height="13.3"/>
	
		<rect x="281" y="201.4" transform="matrix(0.2431 -0.97 0.97 0.2431 -9.3439 449.5208)" style="fill:#FFFFFF;" width="4.7" height="58.7"/>
	
		<rect x="287.6" y="180.1" transform="matrix(0.2431 -0.97 0.97 0.2431 -15.9085 464.9151)" style="fill:#FFFFFF;" width="4.7" height="125.1"/>
	<path style="opacity:0.5;fill:#169CFD;enable-background:new    ;" d="M246.6,242.5L246.6,242.5c0.2-3.8,3.5-6.4,7.9-6.4h88.2
		c5.3,0,10.4,3.7,11.4,8.2l26.5,133.4c1,4.6-2.5,8.3-7.8,8.3H151.6c-5.3,0-10.4-3.7-11.4-8.3l-21.8-112c-1-4.6,2.5-8.3,7.8-8.3
		h101.8C238.5,257.5,246.1,251.2,246.6,242.5z"/>
</g>
</svg>
