<?xml version="1.0" encoding="utf-8"?>
<!-- Generator: Adobe Illustrator 22.1.0, SVG Export Plug-In . SVG Version: 6.00 Build 0)  -->
<svg version="1.1" id="Layer_1" xmlns="http://www.w3.org/2000/svg" xmlns:xlink="http://www.w3.org/1999/xlink" x="0px" y="0px"
	 viewBox="0 0 324.2 163.8" style="enable-background:new 0 0 324.2 163.8;" xml:space="preserve">
<path style="fill:#FFFFFF;" d="M-340.6,155c0.2,0.9,0.3,1.9,0.6,2.8c1,3.5,2.8,6.3,5.9,8.3c1.2,0.8,2.5,1.2,3.9,1.5
	c0.2,0,0.4,0.1,0.5,0.1c-3.7,0-7.3,0-11,0C-340.6,163.4-340.6,159.2-340.6,155z"/>
<g>
	<g>
		<path style="fill:#169CFD;" d="M10.8,43.1c0.2-0.9,0.3-1.9,0.6-2.8c1.1-3.7,3.1-6.7,6.6-8.6c1.5-0.8,3.1-1.2,4.7-1.2
			c15.7,0,31.4,0,47.1,0c0.5,0,0.6,0.2,0.5,0.6c0,1.2,0,2.5,0,3.7c0,17.5,0,35,0,52.4c0,0.7,0,0.7,0.8,0.7c19,0,37.9,0,56.9,0
			c0.9,0,0.9,0,0.9,0.9c0,15.6,0,31.2,0,46.8c0,2.2-0.6,4.1-1.8,5.9c-1.9,2.8-4.4,4.9-7.7,5.7c-0.3,0.1-0.5,0.1-0.8,0.2
			c-32.3,0-64.5,0-96.8,0c-0.2,0-0.4-0.1-0.5-0.1c-1.4-0.2-2.7-0.7-3.9-1.5c-3.1-1.9-4.9-4.8-5.9-8.3c-0.3-0.9-0.4-1.9-0.6-2.8
			C10.8,104.2,10.8,73.7,10.8,43.1z"/>
		<path style="fill:#56BDFC;" d="M142.9,75.8c-0.3,0-0.5,0-0.7,0c-19.4,0-38.8,0-58.2,0c-0.6,0-0.7-0.2-0.7-0.7c0-19.3,0-38.7,0-58
			c0-0.8,0-0.8,0.7-0.8c14.4,0,28.8,0,43.2,0c3,0,5.9,0.5,8.6,2.1c4,2.4,6.2,6.1,6.8,10.6c0.1,1,0.2,2,0.2,2.9c0,14.4,0,28.7,0,43.1
			C142.9,75.3,142.9,75.5,142.9,75.8z"/>
	</g>
	<g>
		<g>
			<path d="M195.8,60.5c-0.8,0-1.5,0-2.2,0c-1.3,0-2.6,0-3.8,0c-0.4,0-0.6-0.1-0.7-0.5c-0.7-2.3-1.5-4.6-2.2-6.8
				c-0.1-0.4-0.3-0.5-0.7-0.5c-3.7,0-7.3,0-11,0c-0.4,0-0.6,0.1-0.7,0.5c-0.7,2.3-1.4,4.5-2.1,6.8c-0.1,0.4-0.3,0.6-0.7,0.5
				c-1.8,0-3.5,0-5.3,0c-0.2,0-0.3,0-0.6,0c0.1-0.2,0.1-0.4,0.2-0.5c3.8-11.1,7.5-22.2,11.3-33.3c0.2-0.5,0.4-0.6,0.9-0.6
				c1.7,0,3.5,0,5.2,0c0.4,0,0.6,0.1,0.8,0.5c3.8,11.1,7.7,22.1,11.6,33.2C195.7,60,195.7,60.2,195.8,60.5z M184.7,46.8
				c-1.4-4.2-2.7-8.4-4.1-12.5c0,0-0.1,0-0.1,0c-1.3,4.2-2.6,8.3-4,12.5C179.3,46.8,182,46.8,184.7,46.8z"/>
			<path d="M209,55.1c0.1,0.6,0.1,1.2,0.2,1.7c0.1,1,0.2,2,0.3,3c0,0.2-0.1,0.5-0.3,0.5c-2,0.8-4.1,1.2-6.2,0.5
				c-2.1-0.6-3.1-2.1-3.3-4.2c-0.1-1.2-0.2-2.5-0.2-3.8c0-3.8,0-7.6,0-11.4c0-0.5-0.1-0.7-0.7-0.7c-0.5,0-1,0-1.6,0
				c-0.3,0-0.4-0.1-0.4-0.4c0-1.5,0-3,0-4.4c0-0.3,0.1-0.4,0.4-0.4c0.6,0,1.1,0,1.7,0c0.4,0,0.6-0.1,0.6-0.6c0-1.3,0-2.6,0-3.9
				c0-0.2,0.1-0.5,0.2-0.6c1.8-1.2,3.6-2.5,5.5-3.8c0,3,0,5.9,0,8.8c1.1,0,2.1,0,3.2,0c0.8,0,0.8,0,0.8,0.8c0,1.3,0,2.6,0,3.9
				c0,0.4-0.1,0.6-0.5,0.5c-1,0-2,0-2.9,0c-0.4,0-0.5,0.1-0.5,0.5c0,4.1,0,8.1,0,12.2c0,2.3,1.3,2.5,2.9,2
				C208.2,55.3,208.5,55.2,209,55.1z"/>
		</g>
		<g>
			<path d="M214.7,89.6c0,3.3-0.8,6.3-2.8,9c-2.5,3.3-5.9,4.7-10,4.1c-4.2-0.6-7.3-2.9-8.7-7c-1.5-4.3-1.5-8.6,0.5-12.8
				c1.8-3.8,4.9-5.9,9.1-6.2c4.2-0.3,7.4,1.5,9.7,4.9C214.1,84,214.7,86.7,214.7,89.6z M208.8,89.7c0-0.5,0-1-0.1-1.5
				c-0.2-1.7-0.6-3.3-1.8-4.6c-1.1-1.2-2.4-1.8-4.1-1.5c-2.2,0.3-3.4,1.8-4.1,3.7c-0.9,2.6-0.9,5.2,0,7.8c0.6,1.7,1.7,3.1,3.5,3.6
				c2.2,0.7,4.4-0.4,5.6-2.6C208.6,93,208.8,91.3,208.8,89.7z"/>
			<path d="M193.8,67.6c-0.6,1.1-1.2,2.1-1.7,3.1c-3,5.5-6,11-9.1,16.5c-0.2,0.3-0.3,0.7-0.3,1c0,4.4,0,8.8,0,13.2
				c0,0.2,0,0.4,0,0.7c-2,0-4,0-6.1,0c0-0.2,0-0.5,0-0.7c0-4.4,0-8.8,0-13.3c0-0.3-0.1-0.7-0.3-1c-3.5-6.3-7-12.6-10.4-18.9
				c-0.1-0.1-0.1-0.3-0.2-0.5c0.3,0,0.5,0,0.6,0c1.9,0,3.8,0,5.7,0c0.5,0,0.8,0.1,1,0.6c2.2,4.2,4.3,8.4,6.5,12.5
				c0.1,0.1,0.1,0.2,0.3,0.4c0.1-0.2,0.2-0.3,0.3-0.5c2.1-4.2,4.3-8.4,6.4-12.6c0.2-0.4,0.4-0.5,0.9-0.5c1.9,0,3.8,0,5.7,0
				C193.3,67.6,193.5,67.6,193.8,67.6z"/>
			<path d="M233.2,77.2c0.2,0,0.4,0,0.5,0c1.6,0,3.1,0,4.7,0c0.4,0,0.5,0.1,0.5,0.5c0,8,0,15.9,0,23.9c0,0.4-0.1,0.5-0.5,0.5
				c-1.6,0-3.1,0-4.8,0c0-1.2,0-2.3,0-3.4c0,0-0.1,0-0.1-0.1c-0.1,0.1-0.2,0.3-0.3,0.4c-1.7,2.2-3.8,3.6-6.7,3.7
				c-3.6,0.1-6.4-2.1-7-5.7c-0.2-1.4-0.3-2.8-0.3-4.1c0-5,0-10.1,0-15.1c0-0.5,0.2-0.6,0.7-0.6c1.5,0,2.9,0,4.4,0
				c0.5,0,0.7,0.1,0.7,0.7c0,4.6,0,9.2,0,13.8c0,1,0.1,2,0.2,2.9c0.4,3.4,3.5,3.7,5.5,2.6c1.3-0.8,2.2-2,2.3-3.5
				c0.2-2,0.3-4.1,0.3-6.1c0-3.2,0-6.4,0-9.7C233.2,77.6,233.2,77.4,233.2,77.2z"/>
			<path d="M244.6,102.1c0-0.3,0-0.5,0-0.6c0-7.9,0-15.8,0-23.7c0-0.5,0.1-0.7,0.6-0.7c1.4,0,2.7,0,4.1,0c0.2,0,0.4,0,0.6,0
				c0,1.1,0,2.2,0,3.2c0,0,0.1,0,0.1,0c0.1-0.1,0.2-0.2,0.2-0.3c0.2-0.4,0.5-0.8,0.7-1.2c1.7-2.5,3.9-2.7,6.2-1.8
				c1.5,0.6,1.5,0.6,1,2.1c-0.4,1.4-0.9,2.9-1.4,4.4c-0.2-0.1-0.4-0.2-0.5-0.3c-0.6-0.2-1.2-0.6-1.8-0.7c-1.4-0.2-2.5,0.4-3.1,1.7
				c-0.6,1.2-0.9,2.6-0.9,3.9c-0.1,4.1-0.1,8.2-0.2,12.4c0,0.5,0.2,1.2-0.1,1.4c-0.3,0.3-1,0.1-1.5,0.1
				C247.4,102.1,246.1,102.1,244.6,102.1z"/>
		</g>
		<g>
			<path d="M313.4,133c-0.3,0-0.5,0.1-0.8,0.1c-4.3,0-8.7,0-13,0c-0.2,0-0.4,0-0.6,0c-0.2,3.3,1.7,5.9,4,6.2
				c1.6,0.2,2.9-0.4,3.6-1.8c0.2-0.4,0.4-0.9,0.5-1.3c0.1-0.3,0.2-0.4,0.5-0.3c1.6,0.3,3.2,0.6,4.8,0.9c0.2,0,0.3,0.1,0.5,0.1
				c-0.2,0.4-0.3,0.9-0.5,1.3c-1.8,4.3-5.3,6.5-9.9,6.1c-4.6-0.4-7.6-2.8-8.9-7.5c-1.1-3.9-1.1-7.9,0.3-11.7c1-3,2.9-5.3,6-6.4
				c4-1.4,9.8-0.3,12.2,6.1c0.8,2.1,1,4.3,1.1,6.5c0,0.2,0.1,0.4,0.1,0.7C313.4,132.3,313.4,132.7,313.4,133z M299.1,129.1
				c0.2,0,0.4,0,0.5,0c2.5,0,5,0,7.5,0c0.2,0,0.5,0.1,0.5-0.3c-0.1-1.5-0.4-3-1.4-4.2c-1.6-1.8-4.3-1.8-5.9,0.1
				C299.3,125.9,299.1,127.4,299.1,129.1z"/>
			<path d="M190.8,119.1c-0.8,0-1.5,0.1-2.2,0.1c-1.1,0-2.2,0.1-3.3,0.1c-0.4,0-0.6-0.1-0.7-0.5c-0.1-0.6-0.3-1.3-0.6-1.9
				c-0.5-1.3-1.5-2.1-2.8-2.4c-1.7-0.4-3.4-0.4-5.1,0.4c-1.7,0.7-2.3,2.2-1.8,3.7c0.3,0.9,1,1.5,1.8,1.9c1.4,0.6,2.8,1,4.2,1.5
				c1.7,0.6,3.5,1.1,5.2,1.8c3.6,1.4,5.5,4.1,6,7.9c0.3,2.6,0,5.1-1.3,7.4c-1.3,2.3-3.2,3.8-5.8,4.5c-3,0.8-6,0.9-8.9,0.2
				c-3.9-1-6.3-3.6-7.5-7.4c-0.3-1.1-0.5-2.3-0.8-3.4c-0.1-0.4,0-0.6,0.4-0.6c1.7-0.2,3.3-0.4,5-0.6c0.4,0,0.4,0.2,0.5,0.4
				c0.2,0.8,0.4,1.7,0.7,2.5c0.9,2.2,2.6,3.4,5,3.6c1.3,0.1,2.5,0,3.7-0.5c1.6-0.7,2.6-1.9,2.9-3.7c0.2-1.7-0.4-3-2-3.8
				c-1.4-0.6-2.9-1.1-4.4-1.5c-2-0.6-4-1.2-5.8-2.2c-3.4-1.9-5.3-5.6-4.9-9.5c0.6-5,3.9-8.2,9.2-8.6c2.1-0.2,4.1-0.1,6.2,0.5
				c4,1.2,6.1,4,6.8,8C190.6,117.8,190.7,118.4,190.8,119.1z"/>
			<path d="M232.1,125.1c-0.4-0.2-0.8-0.5-1.3-0.7c-1.9-0.8-3.6-0.2-4.3,1.7c-0.4,1-0.7,2.1-0.7,3.2c-0.2,3.7-0.2,7.4-0.2,11
				c0,0.9,0,1.9,0,2.8c0,0.4-0.1,0.5-0.5,0.5c-1.6,0-3.2,0-4.8,0c-0.4,0-0.5-0.1-0.5-0.5c0-0.5,0-1,0-1.5c0-7.5,0-14.9,0-22.4
				c0-0.5,0.2-0.7,0.7-0.7c1.4,0,2.8,0,4.2,0c0.4,0,0.5,0.1,0.5,0.5c0,0.9,0,1.8,0.1,2.8c1-1.4,1.7-3,3.6-3.6
				c1.8-0.5,3.4-0.1,4.9,0.9c0-0.1,0-0.2,0-0.3c0-0.1,0-0.1,0-0.2c0.2,0,0.3,0,0.4,0c1.7,0,3.4,0,5.1,0c0.4,0,0.5,0.1,0.6,0.4
				c1.6,5.3,3.3,10.6,5,15.9c0,0.1,0.1,0.3,0.2,0.6c0.3-1.2,0.6-2.2,0.9-3.2c1.4-4.4,2.9-8.9,4.3-13.3c0.1-0.2,0.3-0.4,0.5-0.4
				c1.8,0,3.5,0,5.3,0c0.1,0,0.1,0,0.3,0.1c-0.3,0.8-0.6,1.7-0.8,2.5c-2.5,7.3-5.1,14.6-7.6,21.9c-0.1,0.4-0.3,0.6-0.8,0.6
				c-1.3,0-2.7,0-4,0c-0.4,0-0.6-0.1-0.8-0.6c-2.3-6.5-4.6-13-6.8-19.5c-0.5-1.3-0.9-2.6-1.5-3.9
				C233.3,121.5,232.7,123.3,232.1,125.1z"/>
			<path d="M215.3,133.2c-4.8,0-9.5,0-14.3,0c0.1,2.2,0.5,4.3,2.5,5.6c2.2,1.4,4.6,0.5,5.5-2c0.4-0.9,0.4-0.9,1.4-0.8
				c1.3,0.3,2.7,0.5,4,0.8c0.2,0,0.4,0.1,0.7,0.2c-0.5,1.7-1.2,3.2-2.4,4.5c-2.1,2.3-4.8,3.1-7.9,2.9c-4.6-0.3-7.6-2.8-9-7.4
				c-1.1-4-1.1-8,0.3-12c1-2.9,2.9-5.2,5.9-6.3c3.4-1.2,8.6-0.6,11.4,4.4C215,125.7,215.5,130.1,215.3,133.2z M209.7,129.1
				c-0.1-1.7-0.3-3.3-1.5-4.6c-0.6-0.7-1.3-1.1-2.2-1.2c-3.4-0.4-5.1,3.2-4.7,5.8C204,129.1,206.8,129.1,209.7,129.1z"/>
			<path d="M290.3,126.1c-1.9,0.4-3.7,0.8-5.6,1.1c-0.1-0.3-0.1-0.6-0.2-0.8c-0.5-1.8-1.6-2.8-3.2-3c-1.9-0.2-3.5,0.5-4.3,2.2
				c-0.4,0.9-0.7,1.9-0.8,2.9c-0.3,2.3-0.3,4.6,0.4,6.9c0.5,1.8,1.5,3.1,3.5,3.5c1.9,0.3,3.5-0.5,4.2-2.3c0.3-0.6,0.4-1.3,0.6-2
				c0.1-0.2,0.1-0.4,0.4-0.4c1.7,0.4,3.5,0.7,5.3,1.1c-0.1,0.3-0.1,0.6-0.2,0.9c-0.5,2-1.2,3.8-2.6,5.3c-2.2,2.4-5,3-8,2.8
				c-4.3-0.3-7.1-2.7-8.6-6.6c-1.5-4.2-1.5-8.5-0.1-12.7c1.7-5,5.8-7.4,11.3-6.7c4.2,0.5,6.5,3.2,7.6,7
				C290.2,125.5,290.2,125.8,290.3,126.1z"/>
			<path d="M259.7,131.2c0-3.9,0-7.9,0-11.8c0-0.6,0.2-0.7,0.7-0.7c1.5,0,3,0,4.6,0c0.4,0,0.5,0.1,0.5,0.5c0,8,0,16,0,24
				c0,0.4-0.1,0.5-0.5,0.5c-1.5,0-3.1,0-4.6,0c-0.5,0-0.6-0.1-0.6-0.6C259.7,139.1,259.7,135.2,259.7,131.2z"/>
		</g>
		<path d="M265.5,109.2c0,2,0,3.9,0,5.8c0,0.1-0.2,0.3-0.3,0.3c-1.7,0-3.4,0-5,0c-0.1,0-0.3-0.2-0.3-0.4c0-1.8,0-3.6,0-5.4
			c0-0.1,0.2-0.3,0.3-0.3C261.8,109.2,263.6,109.2,265.5,109.2z"/>
	</g>
</g>
</svg>
